<?xml version="1.0" encoding="utf-8"?>
<!-- Generator: Adobe Illustrator 23.0.3, SVG Export Plug-In . SVG Version: 6.00 Build 0)  -->
<svg version="1.1" id="Layer_1" xmlns="http://www.w3.org/2000/svg" xmlns:xlink="http://www.w3.org/1999/xlink" x="0px" y="0px"
	 viewBox="0 0 364.35 442.99" style="enable-background:new 0 0 364.35 442.99;" xml:space="preserve">
<style type="text/css">
	.st0{fill:url(#SVGID_1_);}
	.st1{fill:url(#SVGID_2_);}
	.st2{fill:url(#SVGID_3_);}
	.st3{fill:url(#SVGID_4_);}
	.st4{fill:url(#SVGID_5_);}
	.st5{fill:#FFFFFF;stroke:#000000;stroke-width:0.25;stroke-miterlimit:10;}
	.st6{fill:url(#SVGID_6_);}
	.st7{fill:url(#SVGID_7_);}
	.st8{fill:url(#SVGID_8_);}
	.st9{fill:url(#SVGID_9_);}
	.st10{fill:url(#SVGID_10_);}
	.st11{fill:url(#SVGID_11_);}
	.st12{fill:url(#SVGID_12_);}
	.st13{fill:url(#SVGID_13_);}
	.st14{fill:url(#SVGID_14_);}
	.st15{fill:url(#SVGID_15_);}
	.st16{fill:url(#SVGID_16_);}
	.st17{fill:url(#SVGID_17_);}
	.st18{fill:url(#SVGID_18_);}
	.st19{fill:url(#SVGID_19_);}
	.st20{fill:url(#SVGID_20_);}
	.st21{fill:url(#SVGID_21_);}
	.st22{fill:url(#SVGID_22_);}
	.st23{fill:url(#SVGID_23_);}
	.st24{fill:url(#SVGID_24_);}
	.st25{fill:url(#SVGID_25_);}
	.st26{fill:url(#SVGID_26_);}
	.st27{fill:url(#SVGID_27_);}
	.st28{fill:url(#SVGID_28_);}
	.st29{fill:url(#SVGID_29_);}
	.st30{fill:#7DC244;}
	.st31{fill:#70BF45;}
	.st32{fill:#F9F9F3;}
	.st33{fill:#BBD238;}
</style>
<linearGradient id="SVGID_1_" gradientUnits="userSpaceOnUse" x1="62.0345" y1="237.4317" x2="301.8772" y2="237.4317">
	<stop  offset="0" style="stop-color:#009149"/>
	<stop  offset="0.1213" style="stop-color:#009448"/>
	<stop  offset="0.3091" style="stop-color:#299B47"/>
	<stop  offset="0.5396" style="stop-color:#5FA845"/>
	<stop  offset="0.8017" style="stop-color:#91BC40"/>
	<stop  offset="1" style="stop-color:#BBD238"/>
</linearGradient>
<path class="st0" d="M282.01,194.82c-0.27,0.13-0.6,0.2-0.81,0.4c-1.76,1.57-3.57,3.08-5.16,4.84c-1.58,1.76-3.17,3.49-4.74,5.26
	c-4.42,4.99-9.1,9.74-13.95,14.33c-2.61,2.47-5.23,4.91-8.03,7.17c-3.36,2.72-6.89,5.14-10.7,7.18c-1.26,0.68-2.47,1.47-3.74,2.12
	c-2.1,1.07-4.29,1.93-6.49,2.77c-2.1,0.8-4.25,1.46-6.37,2.21c-0.67,0.24-1.38,0.45-2.09,0.5c-1.55,0.1-3.04,0.41-4.54,0.75
	c-1.5,0.34-3.03,0.54-4.58,0.51c-2.25-0.05-4.5-0.06-6.76-0.1c-0.24,0-0.38-0.19-0.31-0.43c0.05-0.17,0.18-0.42,0.31-0.45
	c3.69-0.77,4.25-1.25,8.37-2.88c5.74-2.28,11.05-5.38,15.98-9.08c3.28-2.46,6.33-5.21,9.32-8.02c3.37-3.17,6.36-6.69,9.26-10.28
	c3.93-4.87,7.98-9.64,12.21-14.25c2.36-2.57,4.82-5.03,7.75-7c1.61-1.09,3.09-2.38,4.67-3.52c3.39-2.44,7.26-3.79,11.27-4.72
	c1.89-0.43,3.86-0.69,5.79-0.66c4.32,0.06,8.58,0.61,12.57,2.46c0.46,0.21,0.74,0.74,0.6,1.27c-0.51,1.88-1.02,3.76-1.59,5.62
	c-0.75,2.44-1.84,4.78-2.4,7.29c-0.15,0.69-0.57,1.31-0.84,1.98c-1.96,4.85-4.1,9.6-6.57,14.22c-2.71,5.07-5.64,10-8.82,14.79
	c-1.19,1.79-2.44,3.55-3.74,5.26c-2.05,2.69-3.98,5.48-6.21,8.03c-0.74,0.85-1.46,1.71-2.21,2.56c-0.54,0.62-1.17,1.16-1.65,1.82
	c-2.58,3.49-5.85,6.31-9.02,9.22c-3.55,3.25-7.21,6.38-11.08,9.26c-3.86,2.87-7.85,5.56-11.95,8.06
	c-15.01,9.13-32.28,15.54-49.73,17.87c-4.36,0.58-8.72,1.16-13.1,1.54c-9.15,0.78-18.36,0.91-27.54,0.39
	c-9.36-0.54-18.67-1.75-27.85-3.64c-8.5-1.75-17.35-3.51-24.55-8.59c-0.91-0.64-1.77-1.33-2.58-2.08c-1.32-1.22-2.2-2.76-2.55-4.47
	c-0.57-2.84,0-5.5,1.92-7.78c1.04-1.23,5,1.78,6.19,2.34c2.48,1.17,5.03,2.19,7.63,3.05c5.75,1.9,11.74,2.95,17.73,3.74
	c3,0.4,6.01,0.73,9.02,1.06c1.28,0.14,2.53,0.39,3.79,0.53c1.35,0.15,2.7-0.29,4.06-0.08c-1.4-1.19-4.93-0.96-6.72-1.25
	c-2.78-0.44-5.55-0.95-8.3-1.53c-3.35-0.71-6.67-1.53-9.96-2.47c-13.65-3.89-25.61-10.31-34.26-21.84
	c-1.84-2.45-3.34-5.16-4.88-7.82c-2.94-5.07-5.15-10.47-6.85-16.08c-0.44-1.47-0.82-2.96-1.35-4.4c-0.64-1.74-0.96-3.55-1.38-5.34
	c-0.43-1.8-0.84-3.58-1.08-5.41c-0.18-1.32-0.37-2.65-0.72-3.92c-0.44-1.6-0.44-3.24-0.63-4.86c-0.01-0.08,0.07-0.25,0.11-0.25
	c0.18-0.01,0.47-0.05,0.55,0.05c1.27,1.65,2.92,2.87,4.61,4.03c0.42,0.29,0.84,0.59,1.29,0.83c2.34,1.26,4.73,2.4,7.13,3.54
	c0.45,0.22,0.97,0.31,1.46,0.46c0.59,0.18,1.21,0.27,1.75,0.54c0.74,0.38,1.5,0.63,2.32,0.77c0.5,0.08,0.98,0.29,1.45,0.5
	c0.75,0.34,1.51,0.62,2.35,0.68c0.41,0.03,0.82,0.09,1.21,0.23c1.65,0.57,3.34,0.92,5.04,1.28c2.31,0.48,4.6,1.03,6.97,1.15
	c0.1,0.01,0.21,0.01,0.3,0.04c4.26,1.21,8.76,0.97,13.04,2.05c0.2,0.05,0.41,0.07,0.61,0.08c3.58,0.26,7.16,0.51,10.74,0.76
	c0.82,0.06,1.64,0.07,2.45,0.18c3.48,0.48,6.96,0.25,10.45,0.13c-0.91-0.27-1.84-0.22-2.77-0.27c-1.95-0.12-3.89-0.3-5.83-0.4
	c-4.72-0.23-9.38-1.05-14.07-1.56c-0.61-0.07-1.22-0.16-1.82-0.29c-3.51-0.71-7.05-1.28-10.56-2.05c-4.21-0.92-8.37-1.96-12.47-3.26
	c-4.4-1.39-8.74-2.95-12.96-4.81c-2.65-1.17-5.05-2.74-7.35-4.45c-1.68-1.25-2.84-2.97-3.73-4.83c-0.74-1.54-0.76-3.12,0.09-4.73
	c1.09-2.05,2.62-3.68,4.45-5.03c2.82-2.08,5.91-3.68,9.17-4.96c0.28-0.11,0.59-0.16,0.88-0.26c3.7-1.28,2.81-1.74,5.23,1.82
	c0.29,0.42,0.56,0.85,0.83,1.29c0.12,0.2-0.06,0.72-0.29,0.78c-1.62,0.39-3.04,1.2-4.45,2.04c-1.16,0.69-2.12,1.62-2.91,2.7
	c-0.64,0.87-0.82,1.82-0.49,2.91c0.35,1.13,0.95,2.06,1.91,2.71c1.19,0.81,2.37,1.64,3.65,2.27c1.83,0.9,3.69,1.73,5.68,2.3
	c2.56,0.73,5.11,1.46,7.73,1.99c3.11,0.63,6.19,1.39,9.31,1.99c4.63,0.89,9.29,1.68,14.02,1.84c0.72,0.02,1.43,0.11,2.15,0.16
	c4.09,0.28,8.18,0.72,12.28,0.78c5.43,0.09,10.87,0.29,16.31-0.05c3.17-0.2,6.36-0.27,9.52-0.55c3.57-0.32,7.18-0.28,10.71-1.02
	c1.1-0.23,2.25-0.22,3.36-0.37c7.84-1.06,15.54-2.74,23.13-4.95c3.45-1.01,6.78-2.35,10.02-3.88c2.24-1.06,4.56-1.83,6.9-2.58
	c0.29-0.09,0.59-0.2,0.89-0.23c2.86-0.31,5.73-0.5,8.59-0.08c1.62,0.24,3.19,0.79,4.62,1.62c1.95,1.13,3.09,2.95,3.9,5
	c0.34,2.58,0.31,5.11-0.91,7.51c-0.94,1.84-2.16,3.49-3.54,5.01c-2.83,3.12-5.91,5.96-9.43,8.33c-4.26,2.86-8.62,5.54-13.24,7.77
	c-2.48,1.19-5,2.31-7.6,3.28c-3.06,1.15-6.23,2.01-9.25,3.28c-2.5,0.53-4.85,1.61-7.43,1.9c-2.33,0.26-4.61,0.9-6.91,1.39
	c-0.05,0.01-0.1,0.14-0.11,0.22c-0.01,0.09,0,0.25,0.05,0.28c0.88,0.52,1.73,1.1,2.66,1.51c3.27,1.47,6.63,2.72,10.04,3.8
	c3.01,0.95,6.07,1.87,9.26,2.13c0.1,0.01,0.21,0,0.31,0.03c2.8,0.85,5.69,0.59,8.56,0.64c2.15,0.04,4.31-0.01,6.47-0.02
	c1.33-0.01,2.62-0.05,3.93-0.47c1.24-0.4,2.65-0.24,3.92-0.67c2.39-0.08,4.56-1.13,6.89-1.54c1.09-0.19,2.15-0.68,3.19-1.11
	c2.74-1.14,5.55-2.08,8.21-3.45c2.92-1.51,5.7-3.24,8.43-5.06c4.54-3.03,8.68-6.55,12.5-10.44c3.52-3.59,6.91-7.3,9.96-11.31
	c2.42-3.18,4.74-6.44,7.15-9.63c1.3-1.71,2.7-3.36,4.09-5c0.93-1.1,1.93-2.13,2.88-3.21c0.26-0.3,0.43-0.68,0.64-1.02
	c0.39-0.11,0.66-0.3,0.47-0.76c0.68-0.21,0.68-0.21,0.31-0.91c0.59,0.31,1.11,0.29,1.6-0.23c0.2-0.2,0.51-0.3,0.76-0.45
	c0.11-0.33,0.22-0.66,0.33-0.97c0.16-0.11,0.19-0.1,0.11,0.06c-0.01-0.05-0.02-0.1-0.03-0.14c-0.33,0.33-0.51,0.7-0.34,1.17
	c-0.47-0.19-0.91-0.16-1.34,0.12c-0.32,0.2-0.67,0.35-0.99,0.53c-0.11,0.3-0.23,0.59-0.35,0.88
	C282.32,194.24,282.09,194.43,282.01,194.82z"/>
<linearGradient id="SVGID_2_" gradientUnits="userSpaceOnUse" x1="59.6078" y1="115.0535" x2="125.4277" y2="203.151">
	<stop  offset="0" style="stop-color:#FFFFFF"/>
	<stop  offset="0.2197" style="stop-color:#FEFEFC"/>
	<stop  offset="0.3126" style="stop-color:#FBFCF5"/>
	<stop  offset="0.3816" style="stop-color:#F6F9EB"/>
	<stop  offset="0.4388" style="stop-color:#F1F5DD"/>
	<stop  offset="0.4887" style="stop-color:#EBF1CC"/>
	<stop  offset="0.5335" style="stop-color:#E3EBB6"/>
	<stop  offset="0.5745" style="stop-color:#DAE59C"/>
	<stop  offset="0.6124" style="stop-color:#D0DF7F"/>
	<stop  offset="0.6467" style="stop-color:#C5D85A"/>
	<stop  offset="0.6732" style="stop-color:#BBD238"/>
	<stop  offset="0.7535" style="stop-color:#99C03F"/>
	<stop  offset="0.9302" style="stop-color:#359D47"/>
	<stop  offset="1" style="stop-color:#009149"/>
</linearGradient>
<path class="st1" d="M143.51,204.73c-1.11-0.1-2.25,0.15-3.33-0.38c-0.34-0.17-0.8-0.11-1.21-0.1c-7.86,0.16-15.63-0.95-23.37-2.15
	c-3.11-0.48-6.22-0.97-9.33-1.45c-3.4-0.53-5.02-3.66-6.64-6.45c-1.64-2.84-3.33-5.65-5.03-8.45c-1.86-3.07-3.76-6.11-5.66-9.16
	c-4.22-6.79-8.58-13.5-12.61-20.41c-2.22-3.81-4.57-7.54-6.88-11.3c-0.27-0.44-0.58-0.85-0.88-1.26c-0.32-0.43-0.76-0.67-1.3-0.72
	c-0.1-0.01-0.21-0.01-0.31,0c-2.11,0.33-3.79-0.6-5.37-1.82c-1.59-1.22-2.7-2.79-3.31-4.71c-0.45-1.4-0.49-2.81-0.05-4.24
	c0.67-2.19,1.68-4.18,3.32-5.81c1.16-1.16,2.33-2.3,3.67-3.27c2.8-2.02,5.85-3.35,9.32-3.68c1.15-0.11,2.24,0.27,3.36,0.3
	c1.17,0.03,2.21,0.42,3.19,1.01c3.27,1.98,4.95,4.81,4.61,8.7c-0.02,0.2,0.01,0.43-0.07,0.61c-0.59,1.43-0.05,2.54,0.88,3.64
	c5.03,5.95,9.79,12.12,14.89,18.02c1.54,1.78,3,3.64,4.49,5.47c0.19,0.24,0.37,0.5,0.57,0.72c2.7,2.95,5.22,6.05,7.8,9.11
	c3.04,3.61,6.03,7.25,9.06,10.87c2.37,2.83,4.77,5.63,7.15,8.46c2.37,2.83,4.72,5.68,7.1,8.5c2.25,2.67,4.51,5.31,6.78,7.96
	c0.4,0.46,0.86,0.88,1.27,1.32c0.06,0.06,0.07,0.18,0.07,0.27c0,0.26-0.13,0.39-0.36,0.39
	C144.73,204.73,144.12,204.73,143.51,204.73z"/>
<linearGradient id="SVGID_3_" gradientUnits="userSpaceOnUse" x1="256.3726" y1="136.9802" x2="338.5924" y2="136.9802">
	<stop  offset="0" style="stop-color:#009149"/>
	<stop  offset="1" style="stop-color:#BBD238"/>
</linearGradient>
<path class="st2" d="M294.97,136.36c-0.49,0.11-1.05,0.11-1.47,0.34c-5.03,2.76-10.13,5.39-14.97,8.48
	c-3.71,2.37-7.45,4.69-11.11,7.14c-3.06,2.05-6.07,4.17-8.93,6.5c-0.48,0.39-0.93,0.81-1.58,0.87c-0.1,0.01-0.26,0.03-0.3-0.02
	c-0.11-0.16-0.28-0.38-0.24-0.52c0.97-3.44,1.92-6.89,3.12-10.27c0.94-2.62,2.02-5.14,3.36-7.57c2.74-4.97,6.04-9.52,10.21-13.4
	c3.01-2.8,6.23-5.32,9.78-7.42c3.36-1.98,6.89-3.62,10.41-5.27c1.2-0.56,2.46-1.04,3.74-1.36c2.19-0.54,4.28-1.45,6.52-1.77
	c1.83-0.26,3.56-0.98,5.41-1.11c1.33-0.09,2.65-0.27,3.97-0.41c0.31-0.03,0.63,0.02,0.92-0.07c2.4-0.73,4.89-0.43,7.33-0.65
	c2.46-0.22,4.92-0.11,7.38,0.04c0.61,0.04,1.23,0.1,1.84,0.07c2.58-0.1,5.08,0.61,7.64,0.73c0.09,0,0.21,0.06,0.27,0.13
	c0.12,0.15,0.32,0.37,0.28,0.49c-0.26,0.88-0.55,1.75-0.88,2.61c-0.88,2.3-1.85,4.55-2.95,6.76c-0.55,1.1-1.15,2.18-1.63,3.31
	c-0.97,2.28-2.32,4.33-3.74,6.34c-2.13,3.01-4.12,6.13-6.68,8.8c-2.26,2.37-4.57,4.7-6.86,7.04c-0.36,0.36-0.76,0.68-1.17,0.99
	c-4.32,3.3-8.77,6.37-13.79,8.56c-1.31,0.57-2.57,1.27-3.87,1.86c-1.21,0.55-2.43,1.09-3.68,1.52c-1.84,0.63-3.72,1.14-5.56,1.75
	c-2.15,0.71-4.32,1.24-6.59,1.4c-0.6,0.04-1.21,0.24-1.79,0.42c-1.68,0.51-3.4,0.76-5.16,0.75c-2.26-0.02-4.51,0.16-6.74,0.53
	c-1.94,0.32-3.88,0.35-5.82,0.01c-0.15-0.03-0.32-0.23-0.38-0.39c-0.06-0.17,0-0.39,0.04-0.58c0.02-0.09,0.11-0.17,0.19-0.23
	c1.54-1.18,3.1-2.34,4.62-3.55c2.72-2.17,5.42-4.37,8.13-6.56c3.91-3.15,7.73-6.41,11.82-9.33c2.75-1.96,5.5-3.93,8.24-5.91
	c0.31-0.23,0.52-0.6,0.77-0.9c0.28-0.07,0.58-0.1,0.83-0.24c0.25-0.14,0.54-0.34,0.62-0.59c0.08-0.23-0.07-0.55-0.11-0.84
	c0.2,0.03,0.41,0.02,0.6,0.08c0.45,0.15,0.78,0.02,1.01-0.38c0.02-0.04,0.04-0.08,0.07-0.13c0.02,0.04,0.05,0.08,0.07,0.13
	c-0.03-0.03-0.06-0.05-0.09-0.08c-0.54,0.19-1.04,0.51-1.65,0.37c-0.33,0.3-0.68,0.58-1,0.89
	C295.27,135.93,295.13,136.16,294.97,136.36z"/>
<linearGradient id="SVGID_4_" gradientUnits="userSpaceOnUse" x1="117.6675" y1="87.7486" x2="162.1931" y2="87.7486">
	<stop  offset="0" style="stop-color:#009149"/>
	<stop  offset="1" style="stop-color:#BBD238"/>
</linearGradient>
<path class="st3" d="M141.35,98.08c0.07,0.08,0.17,0.14,0.2,0.23c1.8,5.88,3.93,11.64,6.18,17.36c1.5,3.81,3.17,7.56,4.77,11.33
	c0.71,1.69,1.44,3.38,2.13,5.07c0.05,0.13-0.12,0.36-0.22,0.52c-0.03,0.05-0.19,0.03-0.28,0.01c-0.19-0.06-0.4-0.1-0.56-0.22
	c-1.27-0.87-2.54-1.74-3.78-2.64c-2.4-1.75-4.8-3.51-7.18-5.29c-1.07-0.8-2.05-1.69-2.96-2.67c-2.17-2.32-4.41-4.59-6.59-6.9
	c-0.7-0.74-1.37-1.53-1.97-2.36c-2.52-3.5-4.87-7.1-6.57-11.08c-0.44-1.04-0.91-2.06-1.38-3.09c-2.72-6.04-4.38-12.35-4.81-18.98
	c-0.1-1.54-0.26-3.07-0.41-4.6c-0.26-2.56-0.37-5.15-0.07-7.68c0.31-2.55,0.43-5.11,0.75-7.65c0.67-5.19,1.71-10.31,3.36-15.3
	c0.06-0.19,0.12-0.39,0.19-0.59c0.25-0.67,0.91-0.93,1.47-0.55c1.11,0.74,2.21,1.5,3.29,2.26c5.22,3.68,9.94,7.93,14.11,12.78
	c3.42,3.97,6.54,8.18,9.33,12.6c2.36,3.72,4.45,7.62,6.02,11.75c1.24,3.25,2.23,6.59,3.23,9.92c0.98,3.26,1.37,6.6,1.91,9.94
	c0.52,3.16,0.64,6.32,0.64,9.5c0,1.64-0.05,3.28,0.01,4.92c0.13,3.51-0.35,6.96-0.88,10.4c-0.26,1.72-0.54,3.44-0.84,5.15
	c-0.02,0.13-0.3,0.23-0.47,0.31c-0.06,0.03-0.22-0.05-0.27-0.12c-0.18-0.24-0.34-0.5-0.49-0.76c-0.45-0.8-0.89-1.62-1.35-2.42
	c-2.84-4.99-5.63-10.01-8.07-15.21c-0.74-1.58-1.56-3.12-2.35-4.67c-1.71-3.38-3.37-6.79-4.75-10.32c-0.11-0.28-0.26-0.6-0.49-0.77
	c-0.21-0.15-0.55-0.13-0.83-0.19c0.02-0.15,0.02-0.31,0.05-0.46c0.04-0.2,0.06-0.21,0.03-0.01
	C141.44,97.78,141.39,97.93,141.35,98.08z"/>
<linearGradient id="SVGID_5_" gradientUnits="userSpaceOnUse" x1="234.0667" y1="96.6949" x2="300.5151" y2="96.6949">
	<stop  offset="0" style="stop-color:#009149"/>
	<stop  offset="1" style="stop-color:#BBD238"/>
</linearGradient>
<path class="st4" d="M263.03,98.91c-0.58-0.06-0.95,0.33-1.32,0.66c-2.2,2-4.42,3.98-6.59,6.02c-1.65,1.54-3.26,3.12-4.84,4.73
	c-1.44,1.46-2.82,2.97-4.22,4.48c-0.98,1.05-1.87,2.19-2.9,3.18c-2.44,2.36-4.53,5.02-6.63,7.67c-0.38,0.48-0.78,0.95-1.17,1.42
	c-0.23,0.28-0.63,0.37-0.79,0.18c-0.12-0.15-0.3-0.31-0.31-0.48c-0.51-4.85-0.01-9.63,1.28-14.3c0.87-3.15,1.84-6.29,3.33-9.24
	c2.74-5.43,5.91-10.55,10.1-14.99c4.03-4.26,8.39-8.15,13.39-11.25c1.74-1.08,3.48-2.18,5.3-3.11c3.19-1.64,6.4-3.25,9.75-4.54
	c3.73-1.43,7.51-2.68,11.4-3.67c2.38-0.61,4.81-1.03,7.18-1.67c1.21-0.33,2.44-0.25,3.66-0.13c0.53,0.05,0.93,0.54,0.84,1.07
	c-0.26,1.51-0.52,3.03-0.83,4.53c-0.4,1.91-0.86,3.8-1.29,5.7c-1.78,7.87-4.99,15.13-9.2,22.01c-2.58,4.22-5.48,8.16-8.93,11.71
	c-2.94,3.02-6.13,5.75-9.63,8.09c-4.25,2.85-8.75,5.29-13.34,7.54c-1.69,0.43-3.2,1.33-4.9,1.76c-1.57,0.4-3.12,0.99-4.66,1.52
	c-1.27,0.44-2.54,0.79-3.85,1.02c-1.01,0.17-2,0.41-2.96,0.78c-0.24,0.09-0.59-0.05-0.87-0.14c-0.21-0.07-0.23-0.52-0.06-0.81
	c0.05-0.09,0.08-0.19,0.14-0.27c3.12-4.45,6.01-9.06,9.4-13.3c2.56-3.2,5.2-6.35,7.86-9.46c1.67-1.94,3.46-3.78,5.19-5.67
	c0.28-0.31,0.5-0.64,0.4-1.09c0.59-0.13,0.59-0.13,0.5-0.68c0.54-0.11,0.54-0.11,0.44-0.73c0.68-0.03,0.68-0.03,0.72-0.74
	c0.31-0.1,0.62-0.2,0.93-0.3c0,0,0.08,0.06,0.07,0.06c-0.32,0.1-0.64,0.21-0.95,0.33c-0.24,0.23-0.48,0.45-0.73,0.67
	c-0.14,0.26-0.28,0.52-0.42,0.77C263.2,98.33,262.97,98.5,263.03,98.91z"/>
<path class="st5" d="M10.75,367.81c-0.73-0.89-0.74-1.9-0.26-2.87c0.45-0.91,1.02-1.78,1.62-2.61c0.97-1.34,1.74-2.78,2.4-4.28
	c1.73-3.94,3.59-7.81,5.26-11.77c1.03-2.45,2.15-4.87,3.11-7.35c1.89-4.87,4.27-9.54,6.05-14.45c0.35-0.96,0.75-1.92,1.25-2.81
	c1.59-2.88,2.72-5.96,3.95-9c1.16-2.85,2.29-5.7,3.39-8.57c0.37-0.95,0.56-1.97,0.94-2.92c0.41-1.01,0.32-2,0.12-3.02
	c-0.29-1.5-1.08-2.63-2.4-3.41c-0.53-0.31-1.06-0.62-1.57-0.97c-0.57-0.39-0.7-0.97-0.62-1.62c0.06-0.51,0.5-1.03,0.94-1.07
	c0.51-0.05,1.02-0.08,1.53-0.08c4.1-0.01,8.21,0.05,12.31-0.04c3.23-0.07,5.49,1.52,7.12,4.04c1.39,2.15,2.53,4.46,3.31,6.92
	c0.84,2.64,1.92,5.19,2.99,7.74c0.6,1.41,1.19,2.83,1.69,4.28c1.44,4.17,3.33,8.15,4.9,12.26c0.73,1.91,1.43,3.84,2.16,5.75
	c0.29,0.77,0.59,1.53,0.95,2.27c1.28,2.58,2.24,5.28,3.14,8.01c0.99,3.02,2.09,6,3.34,8.91c0.4,0.94,0.74,1.91,1.12,2.86
	c0.57,1.43,1.15,2.85,1.71,4.28c0.77,1.96,2.04,3.54,3.67,4.85c0.56,0.45,1.14,0.86,1.67,1.26c0.08,0.26,0.19,0.45,0.19,0.65
	c0.08,2.79,0.37,3-2.69,3.01c-3.49,0.01-6.97,0.02-10.46-0.01c-1.23-0.01-2.43-0.2-3.61-0.64c-2.26-0.83-3.84-2.3-4.71-4.53
	c-0.44-1.15-0.83-2.31-1.26-3.47c-0.61-1.63-1.21-3.27-1.88-4.87c-1.07-2.55-2.23-5.06-3.01-7.73c-0.23-0.78-0.61-1.52-0.95-2.26
	c-0.18-0.39-0.51-0.64-0.95-0.68c-0.41-0.04-0.82-0.05-1.23-0.05c-6.57,0-13.13-0.02-19.7,0c-1.73,0.01-3.48-0.05-5.11,0.28
	c-1.04,1.2-1.5,2.56-2.02,3.9c-1.3,3.34-2.6,6.68-3.88,10.03c-0.73,1.91-1.48,3.82-2.09,5.77c-0.89,2.87-3.06,4.41-6.3,4.3
	c-1.84-0.06-3.69-0.08-5.54-0.13C11.15,367.97,10.96,367.87,10.75,367.81z M44.66,310.73c-1.28,2.78-2.59,5.55-3.84,8.35
	c-0.59,1.31-1.13,2.64-1.59,3.99c-0.92,2.72-1.86,5.42-3.02,8.05c-0.53,1.21-0.88,2.51-1.29,3.77c-0.14,0.42,0.14,0.88,0.53,0.91
	c0.61,0.05,1.23,0.12,1.84,0.12c4.92,0.02,9.84,0.03,14.77,0.02c0.61,0,1.22-0.09,1.83-0.15c0.25-0.02,0.52-0.4,0.5-0.67
	c-0.04-0.41-0.03-0.84-0.16-1.22c-0.47-1.35-0.95-2.7-1.49-4.02c-1.62-3.98-3.32-7.92-4.77-11.97c-0.76-2.12-1.65-4.19-2.48-6.29
	C45.34,311.23,45.13,310.89,44.66,310.73z"/>
<linearGradient id="SVGID_6_" gradientUnits="userSpaceOnUse" x1="203.3087" y1="68.6763" x2="248.167" y2="68.6763">
	<stop  offset="0" style="stop-color:#009149"/>
	<stop  offset="1" style="stop-color:#BBD238"/>
</linearGradient>
<path class="st6" d="M226.32,73.48c-0.19,0.04-0.42,0.02-0.57,0.12c-0.16,0.1-0.28,0.29-0.37,0.46c-3.98,7.86-7.98,15.7-11.92,23.57
	c-2.29,4.57-4.84,9.03-7.67,13.31c-0.08,0.13-0.34,0.16-0.53,0.19c-0.05,0.01-0.16-0.13-0.2-0.22c-0.08-0.19-0.15-0.38-0.19-0.58
	c-0.1-0.5-0.23-1-0.28-1.51c-0.13-1.53-0.39-3.04-0.61-4.56c-0.38-2.53-0.51-5.1-0.62-7.66c-0.1-2.35-0.11-4.72,0.34-7.05
	c0.06-0.3,0.07-0.61,0.08-0.92c0.12-4.01,0.94-7.91,1.71-11.83c0.81-4.16,2.38-8.03,3.91-11.93c1.16-2.96,2.59-5.8,4.23-8.52
	c0.42-0.7,0.84-1.41,1.32-2.08c2.37-3.34,4.6-6.79,7.23-9.95c0.85-1.02,1.68-2.07,2.6-3.03c3.55-3.7,7.12-7.37,11.09-10.65
	c1.91-1.57,3.96-2.91,5.98-4.31c0.33-0.23,0.94-0.11,1.07,0.2c1.74,4.27,3.46,8.55,4.05,13.17c0.18,1.42,0.48,2.83,0.7,4.24
	c0.6,3.77,0.55,7.57,0.43,11.36c-0.09,2.86-0.3,5.72-1.01,8.52c-0.26,3.52-1.46,6.8-2.57,10.09c-0.46,1.36-0.96,2.71-1.57,4
	c-1.5,3.14-2.96,6.3-4.82,9.26c-1.75,2.79-3.72,5.41-5.96,7.81c-3.36,3.6-6.88,7.03-10.82,10.02c-2.78,2.11-5.73,3.94-8.75,5.67
	c-0.25,0.14-0.6,0.16-0.89,0.14c-0.12-0.01-0.34-0.33-0.31-0.43c0.26-0.66,0.57-1.29,0.86-1.94c1.07-2.33,2.16-4.64,3.21-6.98
	c0.67-1.49,1.3-3.01,1.93-4.52c0.95-2.27,1.83-4.56,2.83-6.8c1.37-3.09,2.46-6.29,3.52-9.49c0.55-1.65,1.06-3.32,1.63-4.96
	c0.27-0.77,0.64-1.5,0.96-2.25c-0.01-0.24-0.02-0.47-0.02-0.69C226.31,72.99,226.32,73.24,226.32,73.48z"/>
<path class="st5" d="M191.73,340.8c0,5.44,0,10.87,0,16.31c0,0.92-0.02,1.85,0.09,2.77c0.1,0.8,0.3,1.62,0.61,2.37
	c0.32,0.78,0.97,1.34,1.83,1.52c0.7,0.15,1.42,0.21,2.12,0.32c0.79,0.12,1.19,0.59,1.24,1.49c0.01,0.2,0.01,0.41,0,0.61
	c-0.04,0.65-0.42,1.15-1.06,1.36c-0.39,0.12-0.79,0.26-1.19,0.29c-3.69,0.28-7.38,0.29-11.08,0.19c-2.49-0.07-4.53-1.17-6.21-2.97
	c-0.63-0.67-1.21-1.39-1.84-2.06c-0.11-0.12-0.37-0.15-0.56-0.14c-0.2,0.02-0.4,0.11-0.57,0.21c-0.78,0.49-1.59,0.95-2.31,1.52
	c-2.04,1.61-4.37,2.68-6.79,3.54c-1.25,0.44-2.55,0.87-3.85,0.98c-4.42,0.37-8.77,0.34-12.95-1.62c-3.76-1.76-6.3-4.49-7.7-8.32
	c-0.42-1.15-0.75-2.36-0.93-3.56c-0.35-2.43-0.67-4.87-0.65-7.35c0.05-7.69,0.02-15.39,0.02-23.08c0-0.82-0.03-1.64-0.04-2.46
	c-0.02-1.56-0.66-2.76-2.01-3.57c-0.53-0.31-1.08-0.61-1.54-1c-0.29-0.25-0.51-0.66-0.59-1.03c-0.11-0.49-0.07-1.02-0.05-1.53
	c0.03-0.63,0.47-1.2,1.09-1.34c0.69-0.16,1.41-0.34,2.11-0.34c4.1-0.03,8.21-0.05,12.31-0.01c2.08,0.02,3.58,1.43,4.05,3.52
	c0.47,2.12,0.59,4.26,0.59,6.41c-0.02,8.31-0.04,16.62-0.06,24.93c-0.01,2.05-0.04,4.11,0.56,6.1c0.21,0.68,0.4,1.38,0.71,2.02
	c0.86,1.77,2.27,2.86,4.24,3.2c2.37,0.42,4.72,0.31,7.01-0.37c2.92-0.86,4.94-2.88,6.35-5.48c0.47-0.87,0.61-1.96,0.76-2.96
	c0.3-2.03,0.51-4.06,0.51-6.12c0.01-6.67,0.1-13.34,0.17-20c0.01-1.13,0.04-2.25-0.25-3.36c-0.31-1.15-0.87-2.07-2.01-2.56
	c-0.19-0.08-0.36-0.2-0.55-0.27c-1.91-0.63-1.7-2.57-1.13-3.84c0.17-0.38,0.49-0.67,0.9-0.79c0.39-0.11,0.8-0.17,1.21-0.19
	c4.1-0.24,8.2-0.31,12.31-0.26c0.62,0.01,1.23,0,1.84,0.06c1.47,0.17,2.46,1.09,2.6,2.59c0.26,2.96,0.72,5.9,0.69,8.89
	c-0.05,5.13-0.01,10.26-0.01,15.39C191.73,340.8,191.73,340.8,191.73,340.8z"/>
<linearGradient id="SVGID_7_" gradientUnits="userSpaceOnUse" x1="164.7436" y1="53.2738" x2="198.6783" y2="53.2738">
	<stop  offset="0" style="stop-color:#009149"/>
	<stop  offset="1" style="stop-color:#BBD238"/>
</linearGradient>
<path class="st7" d="M180.83,58.29c-0.62,0.49-0.67,1.11-0.74,1.7c-0.21,1.94-0.42,3.87-0.58,5.81c-0.52,6.34-0.48,12.7-0.3,19.05
	c0.06,2.25,0.12,4.51,0.21,6.76c0.03,0.71,0.17,1.42,0.21,2.13c0.01,0.16-0.17,0.34-0.29,0.49c-0.16,0.2-0.59,0.08-0.79-0.2
	c-1.93-2.77-3.86-5.54-5.8-8.31c-1.48-2.1-2.71-4.35-3.86-6.64c-1.34-2.67-2.13-5.54-2.69-8.47c-0.35-1.81-0.7-3.62-0.94-5.45
	c-0.23-1.72-0.36-3.47-0.44-5.2c-0.17-3.9-0.07-7.78,0.65-11.64c0.49-2.62,0.77-5.27,1.56-7.83c0.94-3.04,2.04-6.01,3.36-8.91
	c2.12-4.67,4.39-9.26,7.15-13.59c1.21-1.9,2.49-3.75,3.75-5.62c0.15-0.22,0.65-0.28,0.82-0.11c0.07,0.07,0.17,0.12,0.23,0.2
	c4.76,5.85,8.57,12.24,11.24,19.31c1.37,3.65,2.68,7.31,3.56,11.11c0.61,2.6,1.12,5.21,1.12,7.89c0,0.92,0.08,1.85,0.22,2.75
	c0.33,2.15,0.26,4.28-0.04,6.43c-0.24,1.72-0.36,3.46-0.53,5.19c-0.12,1.23-0.44,2.41-0.74,3.61c-1.12,4.49-2.69,8.81-4.72,12.97
	c-1.03,2.12-1.96,4.29-3.24,6.27c-1.17,1.8-2.37,3.58-3.56,5.37c-0.06,0.08-0.13,0.15-0.2,0.23c-0.22,0.26-0.62,0.38-0.81,0.22
	c-0.14-0.12-0.34-0.26-0.36-0.42c-0.46-2.73-1.11-5.44-1.3-8.19c-0.27-3.99-0.84-7.94-1.11-11.93c-0.32-4.6-0.58-9.2-0.88-13.8
	C180.94,59.11,180.88,58.73,180.83,58.29z"/>
<path class="st5" d="M332.34,362.95c-2.18,1.91-4.71,3.07-7.21,4.23c-2.42,1.13-5.04,1.72-7.71,1.98c-1.22,0.12-2.46,0.1-3.69,0.11
	c-2.07,0.01-4.03-0.65-6.03-1.02c-1.73-0.33-3.3-1.15-4.76-2.08c-3.14-1.99-5.32-4.72-6.19-8.42c-0.31-1.3-0.58-2.58-0.61-3.93
	c-0.06-2.75,0.67-5.3,2.08-7.6c1.67-2.73,3.77-5.06,6.74-6.54c4.18-2.08,8.59-3.28,13.21-3.78c0.31-0.03,0.62-0.01,0.92-0.08
	c2.82-0.66,5.7-0.59,8.57-0.62c1.13-0.01,2.26,0.02,3.35-0.32c0.55-0.17,0.94-0.53,0.95-1.06c0.04-2.05,0.14-4.1,0.04-6.14
	c-0.1-1.99-0.95-3.76-2.21-5.3c-0.53-0.64-1.21-1.11-1.98-1.43c-1.32-0.54-2.67-0.97-4.1-1.2c-3.19-0.51-6.36-0.18-9.49,0.26
	c-2.35,0.34-4.48,1.48-6.22,3.15c-0.81,0.78-1.52,1.66-2.27,2.5c-0.34,0.38-0.65,0.8-1.04,1.12c-0.21,0.17-0.59,0.27-0.85,0.2
	c-1.26-0.32-2.21-0.99-2.61-2.33c-0.36-1.19-0.59-2.38-0.53-3.63c0.1-2.23,1.02-3.88,3.19-4.78c2.76-1.15,5.65-1.8,8.55-2.45
	c4.96-1.1,9.99-1.03,15-0.9c3.48,0.09,6.9,0.76,10.19,2.05c2.88,1.12,5.08,3.03,7.01,5.33c0.52,0.62,0.96,1.35,1.26,2.11
	c1.13,2.86,2.13,5.76,2.08,8.91c-0.04,2.87,0.01,5.74,0,8.61c-0.01,6.15-0.03,12.3-0.02,18.45c0,1.12,0.08,2.25,0.21,3.37
	c0.1,0.9,0.7,1.48,1.53,1.75c0.58,0.19,1.19,0.29,1.8,0.36c0.61,0.07,1.23,0.05,1.84,0.09c0.34,0.02,0.85,0.48,0.85,0.78
	c0,0.71,0.02,1.44-0.07,2.14c-0.05,0.41-0.4,0.75-0.82,0.82c-1.01,0.17-2.03,0.35-3.04,0.37c-2.87,0.07-5.74,0.14-8.61,0.07
	c-2.88-0.06-5.4-1.02-7.32-3.31C333.81,364.17,333.4,363.43,332.34,362.95z M332.02,347.64c-0.01,0-0.02,0-0.02,0
	c0-1.84,0.01-3.68-0.01-5.52c-0.01-1-0.33-1.32-1.24-1.35c-2.05-0.07-4.08,0.09-6.11,0.39c-2.91,0.44-5.46,1.68-7.91,3.17
	c-2.01,1.23-3.28,3.04-3.82,5.35c-0.12,0.5-0.24,0.99-0.36,1.49c-0.6,2.53-0.03,4.87,1.27,7.05c0.94,1.57,2.34,2.57,4.18,2.83
	c2.34,0.33,4.68,0.37,7.01-0.23c2.63-0.67,4.62-2.11,5.92-4.5c0.69-1.27,1.18-2.58,1.12-4.08
	C331.97,350.71,332.02,349.18,332.02,347.64z"/>
<linearGradient id="SVGID_8_" gradientUnits="userSpaceOnUse" x1="169.0628" y1="134.4843" x2="200.6602" y2="134.4843">
	<stop  offset="0" style="stop-color:#009149"/>
	<stop  offset="1" style="stop-color:#BBD238"/>
</linearGradient>
<path class="st8" d="M188.02,170.67c-0.31-1.38-0.62-2.68-0.88-3.98c-0.18-0.9-0.37-1.82-0.42-2.73c-0.17-3.69-0.85-7.33-1.17-11
	c-0.08-0.92-0.15-1.84-0.21-2.76c-0.27-4.61-0.54-9.21-0.82-13.82c-0.01-0.16-0.14-0.32-0.24-0.46c-0.11-0.15-0.49,0.28-0.55,0.63
	c-0.04,0.2-0.09,0.4-0.11,0.6c-0.11,1.33-0.28,2.64-0.59,3.94c-0.23,0.98-0.22,2.04-0.22,3.06c-0.02,5.43-0.04,10.87,0,16.3
	c0.01,2.15,0.13,4.3,0.56,6.42c0.04,0.2,0.06,0.43,0,0.61c-0.06,0.17-0.24,0.34-0.4,0.41c-0.17,0.06-0.39,0.01-0.58-0.02
	c-0.09-0.02-0.19-0.1-0.24-0.18c-2.07-3.17-4.45-6.11-6.36-9.4c-1.81-3.11-3.42-6.29-4.4-9.77c-0.33-1.18-0.68-2.36-1.02-3.54
	c-0.03-0.1-0.07-0.19-0.09-0.29c-1.02-5.15-1.64-10.31-0.88-15.57c0.92-6.36,2.86-12.35,5.93-17.99c1.97-3.61,4.12-7.08,6.69-10.3
	c0.64-0.8,1.23-1.63,1.87-2.42c0.09-0.12,0.39-0.14,0.56-0.1c0.18,0.05,0.34,0.21,0.48,0.36c4.46,4.6,8.12,9.78,10.82,15.59
	c1.82,3.9,3.16,7.99,3.96,12.25c0.55,2.94,0.86,5.88,0.93,8.85c0.05,2.16-0.15,4.3-0.42,6.44c-0.68,5.33-2.22,10.42-4.31,15.33
	c-1.69,3.96-3.73,7.76-5.96,11.44c-0.37,0.61-0.72,1.24-1.14,1.82C188.68,170.57,188.31,170.57,188.02,170.67z"/>
<path class="st5" d="M111.84,349.13c1.39-1.66,2.08-3.7,2.82-5.72c0.85-2.31,1.62-4.64,2.48-6.94c0.68-1.82,1.43-3.62,2.18-5.41
	c1.16-2.79,1.56-5.72,1.72-8.7c0.09-1.74-0.62-3.19-1.77-4.44c-0.35-0.37-0.77-0.68-1.15-1.01c-0.61-0.53-0.65-1.23-0.57-1.97
	c0.04-0.37,0.39-0.81,0.73-0.89c0.3-0.07,0.6-0.17,0.9-0.17c3.28-0.02,6.56-0.03,9.85-0.05c1.36-0.01,2.51,0.84,2.93,2.28
	c0.46,1.6,0.63,3.22,0.15,4.85c-0.64,2.16-1.18,4.36-1.97,6.46c-1.15,3.07-2.42,6.09-3.73,9.1c-1.76,4.03-3.7,7.99-5.39,12.05
	c-2.13,5.11-4.45,10.13-6.87,15.1c-1.08,2.2-2.24,4.4-3.65,6.4c-2.01,2.86-4.41,5.4-7.57,7.08c-0.45,0.24-0.91,0.47-1.33,0.76
	c-2.95,2.02-6.34,2.78-9.78,3.37c-1,0.17-2.04,0.12-3.07,0.09c-1.17-0.04-1.79-0.76-1.85-2.01c-0.01-0.31-0.02-0.61-0.02-0.92
	c0.01-1.64,0.22-1.89,1.88-2.2c4.03-0.77,7.55-2.55,10.57-5.3c0.75-0.68,1.37-1.52,2.01-2.32c0.97-1.22,1.2-2.44,0.44-3.97
	c-1.73-3.48-3.07-7.15-4.88-10.6c-0.8-1.54-1.39-3.19-2.15-4.76c-1.29-2.67-2.68-5.3-3.97-7.98c-2.08-4.34-4.13-8.69-6.14-13.06
	c-0.98-2.14-2-4.27-3.22-6.29c-0.53-0.87-1.17-1.67-1.8-2.48c-0.71-0.91-1.65-1.52-2.71-1.96c-0.64-0.26-0.92-0.78-0.93-1.45
	c-0.01-0.31-0.01-0.61,0-0.92c0.02-0.5,0.46-1.04,0.89-1.12c0.3-0.05,0.61-0.12,0.91-0.12c3.79-0.03,7.59-0.09,11.38-0.04
	c1.88,0.03,3.6,0.74,5.12,1.86c0.49,0.36,0.96,0.81,1.26,1.32c1.1,1.84,2.37,3.58,3.25,5.56c2,4.49,4.11,8.94,6.19,13.39
	c1.96,4.17,3.95,8.33,5.92,12.5C111.09,348.88,111.31,349.17,111.84,349.13z"/>
<linearGradient id="SVGID_9_" gradientUnits="userSpaceOnUse" x1="202.8046" y1="161.7734" x2="254.2921" y2="161.7734">
	<stop  offset="0" style="stop-color:#009149"/>
	<stop  offset="1" style="stop-color:#BBD238"/>
</linearGradient>
<path class="st9" d="M227.93,159.97c-1.17,0.86-2.05,1.85-2.97,2.77c-2.32,2.31-4.63,4.64-6.9,6.99c-1.42,1.47-2.8,2.99-4.17,4.51
	c-1.65,1.82-3.28,3.66-4.9,5.51c-1.75,2-3.64,3.89-5.08,6.16c-0.08,0.13-0.37,0.21-0.52,0.17c-0.16-0.04-0.38-0.27-0.38-0.41
	c-0.05-2.14-0.4-4.27,0-6.43c0.24-1.3,0.23-2.66,0.23-3.99c0.01-1.35,0.22-2.65,0.52-3.95c1.21-5.25,3.39-10.05,6.47-14.48
	c2.01-2.89,4.33-5.45,7.08-7.64c1.12-0.89,2.24-1.79,3.37-2.67c3.02-2.35,6.46-3.97,9.97-5.41c2.17-0.89,4.36-1.78,6.68-2.27
	c2.23-1.1,4.73-1.28,7.08-2c0.1-0.03,0.19-0.07,0.29-0.09c2.93-0.45,5.85-1.04,8.84-0.94c0.59,0.02,0.88,0.4,0.72,1.04
	c-0.57,2.39-1.12,4.79-1.73,7.16c-1.34,5.17-3.51,10.04-5.68,14.89c-0.08,0.19-0.17,0.38-0.27,0.55c-2.5,4.24-4.92,8.54-8.29,12.17
	c-3.15,3.4-6.66,6.34-10.72,8.65c-4.3,2.46-6.68,3.34-10.51,4.95c-1.32,0.56-2.59,1.19-4.07,1.27c-0.59,0.03-1.16,0.37-1.73,0.6
	c-1.16,0.46-2.37,0.6-3.6,0.62c-0.09,0-0.25-0.06-0.27-0.13c-0.05-0.17-0.12-0.46-0.04-0.52c2.06-1.61,3.38-3.84,4.95-5.85
	c2.79-3.54,5.47-7.17,8.19-10.76c0.19-0.24,0.38-0.48,0.55-0.74c2.03-3.21,4.43-6.15,6.77-9.13
	C227.89,160.5,227.87,160.29,227.93,159.97z"/>
<linearGradient id="SVGID_10_" gradientUnits="userSpaceOnUse" x1="98.7621" y1="143.7435" x2="156.5939" y2="143.7435">
	<stop  offset="0" style="stop-color:#009149"/>
	<stop  offset="1" style="stop-color:#BBD238"/>
</linearGradient>
<path class="st10" d="M131.53,145.42c0.44,0.04,0.71,0.32,1.01,0.62c2.08,2.12,4.18,4.22,6.25,6.35c2.15,2.2,4.28,4.41,6.41,6.63
	c1.99,2.07,3.96,4.15,5.93,6.24c0.21,0.22,0.37,0.48,0.53,0.74c0.04,0.07,0.03,0.23-0.02,0.29c-0.12,0.14-0.26,0.27-0.42,0.37
	c-0.07,0.05-0.2,0.02-0.3,0c-2.01-0.4-4.02-0.78-6.09-0.73c-0.3,0.01-0.61-0.06-0.91-0.14c-1.87-0.52-3.76-0.99-5.61-1.59
	c-2.13-0.69-4.26-1.42-6.33-2.29c-0.66-0.27-1.29-0.61-1.93-0.93c-2.55-1.3-5.14-2.53-7.49-4.18c-1.01-0.7-1.95-1.48-2.89-2.26
	c-2.6-2.17-4.96-4.57-7.28-7.02c-0.99-1.04-1.89-2.16-2.67-3.36c-2.24-3.43-4.47-6.87-6.2-10.6c-1.25-2.69-2.65-5.32-3.63-8.13
	c-0.43-1.25-0.77-2.53-1.11-3.81c-0.03-0.13,0.13-0.37,0.26-0.47c0.15-0.11,0.38-0.16,0.58-0.17c1.02-0.06,2.05-0.17,3.07-0.15
	c2.66,0.05,5.33,0.08,7.99,0.28c1.93,0.14,3.85,0.52,5.77,0.84c2.42,0.4,4.82,0.97,7.13,1.8c2.59,0.94,5.19,1.9,7.59,3.29
	c2.22,1.28,4.4,2.63,6.56,3.99c3.69,2.32,6.68,5.41,9.35,8.82c3.57,4.58,6.11,9.67,7.69,15.27c0.47,1.67,0.93,3.34,1.35,5.03
	c0.35,1.41,0.36,2.82,0.49,4.24c0.01,0.07-0.09,0.21-0.15,0.22c-0.18,0.02-0.45,0.07-0.55-0.03c-3.79-3.6-7.85-6.89-11.82-10.28
	c-2.03-1.73-4-3.51-6.13-5.12c-1.55-1.18-3.09-2.37-4.65-3.54c-0.52-0.39-1.12-0.51-1.73-0.16c0,0,0.03-0.2,0.03-0.2L131.53,145.42z
	"/>
<linearGradient id="SVGID_11_" gradientUnits="userSpaceOnUse" x1="64.8238" y1="89.7233" x2="117.986" y2="89.7233">
	<stop  offset="0" style="stop-color:#009149"/>
	<stop  offset="1" style="stop-color:#BBD238"/>
</linearGradient>
<path class="st11" d="M100.46,98.25c0.04,0.19,0.02,0.43,0.13,0.57c0.58,0.72,1.16,1.44,1.79,2.11c2.74,2.91,5.5,5.79,8.23,8.71
	c0.98,1.04,1.89,2.15,2.81,3.24c0.11,0.13,0.12,0.36,0.15,0.55c0.04,0.22-0.29,0.36-0.74,0.32c-0.61-0.05-1.22-0.13-1.84-0.15
	c-3.31-0.14-6.48-0.95-9.61-1.95c-3.42-1.09-6.64-2.66-9.73-4.47c-2.66-1.56-5.11-3.42-7.43-5.44c-1.23-1.08-2.39-2.25-3.54-3.42
	c-2.17-2.2-3.91-4.74-5.63-7.28c-2.36-3.48-4.49-7.11-5.96-11.07c-1.24-3.36-2.57-6.69-3.52-10.14c-0.3-1.08-0.51-2.19-0.74-3.29
	c-0.04-0.19,0.04-0.4,0.08-0.7c0.37-0.06,0.77-0.19,1.16-0.17c2.77,0.13,5.5,0.38,8.21,1.07c3.08,0.79,6.19,1.46,9.13,2.66
	c5.63,2.28,10.96,5.09,15.5,9.22c3.05,2.77,5.7,5.88,8.13,9.19c3.05,4.16,5.29,8.77,7.42,13.42c1.06,2.32,1.7,4.82,2.5,7.25
	c0.38,1.17,0.68,2.36,1.01,3.55c0.02,0.07-0.06,0.23-0.11,0.24c-0.18,0.05-0.44,0.13-0.54,0.05c-1.57-1.31-3.14-2.63-4.68-3.97
	c-2.23-1.96-4.43-3.96-6.67-5.91c-1.55-1.34-3.13-2.65-4.73-3.93c-0.21-0.17-0.56-0.14-0.85-0.2c0.08-0.4-0.22-0.6-0.42-0.85
	c-0.24-0.19-0.48-0.39-0.72-0.58c-0.3-0.14-0.59-0.28-0.89-0.43l-0.01-0.13c0,0,0.09,0.09,0.1,0.08c0.29,0.13,0.58,0.26,0.86,0.39
	c0.05,0.44,0.26,0.67,0.72,0.6C99.93,98.03,99.93,98.03,100.46,98.25z"/>
<path class="st5" d="M269.32,320.4c1.29-0.61,2.32-1.41,3.26-2.36c3.26-3.29,7.22-4.95,11.84-5.09c1.54-0.05,3.05-0.14,4.59,0.23
	c1.23,0.29,2.32,0.8,3.34,1.49c0.98,0.67,1.51,1.63,1.7,2.81c0.26,1.66,0.02,3.29-0.3,4.89c-0.42,2.11-1.07,4.16-2.26,6
	c-0.37,0.57-0.91,0.81-1.56,0.82c-0.96,0.02-1.8-0.25-2.51-0.95c-0.8-0.79-1.64-1.54-2.5-2.27c-0.89-0.75-1.93-1.15-3.1-1.17
	c-1.23-0.02-2.47-0.11-3.69-0.02c-3.5,0.27-5.89,2.09-7.24,5.33c-0.69,1.64-0.93,3.35-0.93,5.11c0,2.87-0.01,5.74-0.01,8.61
	c-0.01,5.43-0.01,10.87-0.02,16.3c0,1.03-0.01,2.05-0.05,3.07c-0.02,0.61-0.07,1.23-0.19,1.83c-0.34,1.71-1.35,2.88-3.4,2.88
	c-2.56,0-5.13,0.05-7.69,0.07c-0.51,0-1.03,0-1.54-0.04c-1.5-0.13-2.7-1.17-3-2.65c-0.12-0.6-0.14-1.22-0.14-1.83
	c0.04-11.48,0.09-22.96,0.12-34.45c0.01-2.25-0.09-4.51-0.16-6.76c-0.02-0.61-0.05-1.24-0.21-1.83c-0.35-1.22-0.93-2.28-2.36-2.55
	c-0.9-0.17-1.79-0.42-2.68-0.64c-0.6-0.15-1.01-0.64-1.08-1.33c-0.03-0.3-0.01-0.61,0.03-0.91c0.05-0.45,0.33-0.76,0.74-0.89
	c0.38-0.13,0.8-0.22,1.2-0.22c3.79-0.02,7.59-0.07,11.38-0.01c3.12,0.05,5.46,1.52,7.04,4.21
	C268.37,318.86,268.65,319.76,269.32,320.4z"/>
<path class="st5" d="M219.82,321.28c0.94-0.89,1.63-1.49,2.26-2.15c1.79-1.88,3.95-3.28,6.17-4.56c1.98-1.14,4.2-1.67,6.48-1.76
	c2.37-0.09,4.71,0.17,6.98,0.94c2.18,0.74,3.43,2.38,3.19,4.66c-0.27,2.54-0.53,5.1-1.48,7.51c-0.26,0.66-0.58,1.31-0.96,1.91
	c-0.81,1.29-2.52,1.58-3.73,0.63c-0.56-0.44-1.07-0.96-1.6-1.44c-0.38-0.34-0.74-0.71-1.15-1.01c-0.75-0.55-1.59-0.95-2.53-1.05
	c-2.05-0.23-4.1-0.2-6.13,0.15c-2.64,0.45-4.41,2.06-5.6,4.36c-0.37,0.72-0.74,1.5-0.88,2.29c-0.35,1.91-0.86,3.79-0.85,5.76
	c0.04,8.21,0.05,16.41,0.05,24.62c0,1.12-0.04,2.26-0.18,3.37c-0.15,1.22-1.3,2.25-2.5,2.37c-0.1,0.01-0.2,0.02-0.31,0.02
	c-3.08-0.03-6.16-0.06-9.23-0.1c-1.09-0.01-1.97-0.49-2.68-1.3c-0.35-0.39-0.63-0.81-0.66-1.35c-0.03-0.72-0.05-1.43-0.05-2.15
	c0.01-11.69,0.03-23.39,0.04-35.08c0-1.74-0.06-3.49-0.03-5.23c0.02-1.29-0.42-2.4-1.03-3.49c-0.49-0.86-1.23-1.38-2.15-1.61
	c-0.69-0.17-1.42-0.2-2.13-0.31c-0.78-0.11-1.2-0.64-1.22-1.5c0-0.1,0-0.21,0.01-0.31c0.05-0.67,0.46-1.25,1.04-1.36
	c0.6-0.12,1.21-0.24,1.82-0.24c3.59-0.03,7.18-0.01,10.77-0.06c2.08-0.03,3.79,0.9,5.33,2.1c0.88,0.68,1.46,1.7,1.86,2.78
	C219.02,319.46,219.36,320.19,219.82,321.28z"/>
<linearGradient id="SVGID_12_" gradientUnits="userSpaceOnUse" x1="101.7319" y1="438.59" x2="101.7319" y2="396.0602">
	<stop  offset="0" style="stop-color:#009149"/>
	<stop  offset="0.1418" style="stop-color:#009349"/>
	<stop  offset="0.3046" style="stop-color:#009748"/>
	<stop  offset="0.4778" style="stop-color:#3F9F47"/>
	<stop  offset="0.6583" style="stop-color:#68AB44"/>
	<stop  offset="0.8423" style="stop-color:#92BD40"/>
	<stop  offset="1" style="stop-color:#BBD238"/>
</linearGradient>
<path class="st12" d="M111.54,418.66c0-2.87,0.01-5.75-0.01-8.62c0-0.51-0.02-1.04-0.16-1.52c-0.06-0.23-0.39-0.43-0.63-0.57
	c-0.16-0.09-0.4-0.09-0.6-0.09c-5.75,0-11.49,0-17.24,0c-0.2,0-0.45-0.03-0.6,0.08c-0.23,0.16-0.51,0.39-0.57,0.64
	c-0.11,0.49-0.12,1.01-0.12,1.52c0,4.1,0.04,8.21,0.02,12.31c-0.01,1.75,0.06,3.48,0.64,5.16c0.16,0.48,0.17,1.01,0.24,1.51
	c0.04,0.26-0.47,0.87-0.74,0.9c-0.2,0.03-0.4,0.1-0.61,0.1c-3.28-0.01-6.57-0.02-9.85-0.04c-0.2,0-0.39-0.11-0.59-0.14
	c-0.19-0.04-0.54-0.5-0.49-0.71c0.08-0.4,0.09-0.84,0.29-1.17c1.03-1.63,1.28-3.44,1.29-5.31c0.01-2.36,0.04-4.72,0.04-7.08
	c0.01-8.21,0.02-16.42,0.03-24.62c0-0.41-0.02-0.82,0.01-1.23c0.11-1.63-0.33-3.04-1.63-4.11c-0.15-0.12-0.21-0.34-0.31-0.52
	c-0.14-0.24,0.16-0.96,0.44-1.05c0.29-0.09,0.58-0.25,0.87-0.25c2.97-0.02,5.95-0.04,8.92-0.02c0.81,0.01,1.32,0.53,1.38,1.35
	c0.06,0.82,0.07,1.64,0.07,2.46c-0.01,4.51-0.03,9.03-0.04,13.54c0,0.41-0.01,0.82,0.01,1.23c0.02,0.54,0.43,0.95,0.98,0.96
	c2.05,0.05,4.1,0.13,6.15,0.13c3.59,0,7.18-0.05,10.77-0.1c0.5-0.01,1-0.13,1.49-0.26c0.16-0.04,0.34-0.25,0.39-0.42
	c0.1-0.39,0.16-0.8,0.16-1.21c0.04-3.8,0.03-7.59,0.1-11.39c0.04-2.18-0.11-4.3-1.34-6.21c-0.28-0.43,0.11-1.13,0.59-1.18
	c0.31-0.03,0.61-0.08,0.92-0.08c2.87,0,5.75,0,8.62,0.01c0.41,0,0.82,0.07,1.22,0.12c0.28,0.04,0.72,0.67,0.66,0.95
	c-0.23,1-0.44,2-0.73,2.98c-0.26,0.9-0.35,1.81-0.35,2.73c0,11.39,0,22.78,0,34.16c0,0.1,0.01,0.21,0,0.31
	c-0.13,1.76,0.42,3.22,1.81,4.35c0.22,0.18,0.33,0.5,0.49,0.75c0.11,0.18-0.09,0.74-0.28,0.8c-0.29,0.09-0.58,0.25-0.87,0.25
	c-2.98,0.01-5.95-0.01-8.93-0.02c-0.2,0-0.41-0.03-0.61-0.06c-0.56-0.07-1.2-0.66-1.26-1.19c-0.04-0.41-0.08-0.82-0.08-1.23
	c-0.01-2.97,0-5.95,0-8.92C111.51,418.66,111.52,418.66,111.54,418.66z"/>
<linearGradient id="SVGID_13_" gradientUnits="userSpaceOnUse" x1="210.628" y1="441.1215" x2="210.628" y2="401.8999">
	<stop  offset="0" style="stop-color:#009149"/>
	<stop  offset="0.1213" style="stop-color:#009448"/>
	<stop  offset="0.3091" style="stop-color:#299B47"/>
	<stop  offset="0.5396" style="stop-color:#5FA845"/>
	<stop  offset="0.8017" style="stop-color:#91BC40"/>
	<stop  offset="1" style="stop-color:#BBD238"/>
</linearGradient>
<path class="st13" d="M195.69,406.52c0-6.16,0.01-12.31-0.01-18.47c0-0.82-0.08-1.64-0.17-2.45c-0.13-1.14-0.77-1.87-1.87-2.19
	c-0.48-0.14-1.05-0.07-1.36-0.57c-0.08-0.14-0.07-0.48,0.03-0.56c0.66-0.53,1.48-0.75,2.28-0.8c1.75-0.11,3.45-0.38,5.17-0.72
	c0.99-0.19,2.04-0.07,3.07-0.03c0.69,0.03,1.13,0.47,1.33,1.1c0.16,0.48,0.29,0.99,0.32,1.49c0.06,0.82,0.03,1.64,0.04,2.46
	c0.01,3.28-0.01,6.57,0.02,9.85c0.01,1.33,0.1,2.66,0.16,3.99c0.01,0.3,0.43,0.55,0.65,0.41c0.43-0.27,0.86-0.54,1.28-0.84
	c2.33-1.66,4.95-2.41,7.8-2.43c0.82-0.01,1.64,0,2.46,0.01c3.13,0.07,5.73,1.28,7.92,3.52c2.73,2.8,3.83,6.25,4.13,10.02
	c0.1,1.33,0.09,2.67,0,4c-0.24,3.79-1.59,7.18-3.98,10.13c-0.57,0.7-1.31,1.3-2.07,1.81c-1.7,1.14-3.39,2.31-5.43,2.81
	c-0.39,0.09-0.75,0.33-1.11,0.53c-0.65,0.36-1.35,0.46-2.07,0.5c-1.33,0.06-2.67,0.11-4,0.21c-2.67,0.19-5.33-0.16-7.99-0.27
	c-0.5-0.02-1.02-0.14-1.49-0.32c-1.26-0.46-2.53-0.84-3.85-1.09c-0.84-0.16-1.21-0.58-1.27-1.49c-0.09-1.33-0.15-2.66-0.14-3.99
	c0.04-5.54,0.12-11.08,0.18-16.62C195.72,406.52,195.71,406.52,195.69,406.52z M204.71,404.89c-0.07,0.38-0.15,0.58-0.15,0.78
	c-0.02,6.25-0.03,12.51-0.03,18.76c0,0.3,0.05,0.61,0.11,0.91c0.08,0.43,0.34,0.76,0.71,0.94c0.36,0.18,0.75,0.36,1.15,0.42
	c1.63,0.25,3.26,0.26,4.89-0.11c3.77-0.87,6.07-3.3,7.12-6.9c0.83-2.86,1.01-6.44,0.69-9.45c-0.21-1.94-0.73-3.81-1.57-5.59
	c-0.66-1.39-1.79-2.3-3.17-2.74c-2.9-0.91-5.68-0.62-8.13,1.33C205.67,403.76,205.17,404.41,204.71,404.89z"/>
<linearGradient id="SVGID_14_" gradientUnits="userSpaceOnUse" x1="39.1019" y1="105.0145" x2="86.6617" y2="105.0145">
	<stop  offset="0" style="stop-color:#009149"/>
	<stop  offset="1" style="stop-color:#BBD238"/>
</linearGradient>
<path class="st14" d="M86.66,115.67c-0.08,0.06-0.19,0.18-0.25,0.16c-1.33-0.49-2.6-1.12-3.92-1.63c-1.75-0.68-3.53-1.09-5.38-1.16
	c-2.05-0.07-4.1-0.03-6.15,0c-1.35,0.02-2.59,0.38-3.83,1c-2.2,1.1-4.38,2.2-6.2,3.9c-0.4,0.37-0.92,0.4-1.44,0.2
	c-4.36-1.68-8.29-4.05-11.41-7.57c-1.28-1.45-2.36-3.1-3.39-4.75c-2.41-3.84-4.27-7.93-5.57-12.28c-0.07-0.24,0.15-0.7,0.36-0.78
	c0.19-0.07,0.37-0.19,0.57-0.22c1.21-0.21,2.42-0.48,3.64-0.57c2.55-0.19,5.12-0.38,7.68-0.01c0.3,0.04,0.61,0.09,0.92,0.08
	c2.28-0.06,4.47,0.55,6.65,1.04c1.77,0.4,3.53,1.03,5.19,1.84c2.31,1.13,4.56,2.34,6.64,3.84c2.59,1.86,4.91,4,6.99,6.44
	c2.59,3.04,5.3,5.97,7.95,8.96c0.33,0.38,0.62,0.79,0.92,1.2C86.68,115.44,86.65,115.57,86.66,115.67z"/>
<linearGradient id="SVGID_15_" gradientUnits="userSpaceOnUse" x1="289.6919" y1="168.4492" x2="338.6331" y2="168.4492">
	<stop  offset="0" style="stop-color:#009149"/>
	<stop  offset="1" style="stop-color:#BBD238"/>
</linearGradient>
<path class="st15" d="M305.12,169.98c-2.75-0.27-5.38,0.19-8,0.62c-2.34,0.39-4.68,0.46-7.04,0.34c-0.24-0.01-0.4-0.14-0.38-0.39
	c0.01-0.18,0.05-0.42,0.17-0.52c0.87-0.71,1.81-1.34,2.64-2.09c2.6-2.34,5.5-4.25,8.51-6.01c1.44-0.84,2.98-1.4,4.52-1.9
	c2.91-0.95,5.86-1.76,8.97-1.89c5.4-0.22,10.61,0.52,15.71,2.31c2.8,0.98,5.57,2.04,8.27,3.26c0.11,0.05,0.12,0.34,0.14,0.53
	c0.01,0.09-0.06,0.2-0.13,0.27c-1.35,1.54-2.68,3.1-4.05,4.62c-2.44,2.69-5.47,4.61-8.55,6.44c-1.84,0.62-3.53,1.65-5.46,2.03
	c-0.4,0.08-0.8,0.18-1.17,0.34c-1.34,0.59-2.75,0.81-4.19,0.83c-1.84,0.03-3.69,0.04-5.53,0c-0.82-0.02-1.65-0.09-2.44-0.28
	c-2.19-0.51-4.37-1.09-6.55-1.66c-0.79-0.21-1.56-0.47-2.35-0.68c-0.99-0.26-1.97-0.44-2.91-0.93c-0.89-0.46-1.96-0.54-2.94-0.85
	c-0.27-0.08-0.49-0.34-0.7-0.54c-0.18-0.17-0.08-0.69,0.13-0.8c0.82-0.46,1.72-0.68,2.63-0.75c1.34-0.1,2.62-0.43,3.91-0.76
	c1.29-0.33,2.59-0.66,3.94-0.63C303.33,170.91,304.2,170.34,305.12,169.98z"/>
<linearGradient id="SVGID_16_" gradientUnits="userSpaceOnUse" x1="31.5758" y1="172.689" x2="77.1114" y2="172.689">
	<stop  offset="0" style="stop-color:#009149"/>
	<stop  offset="1" style="stop-color:#BBD238"/>
</linearGradient>
<path class="st16" d="M57.31,173.09c0.64,0.4,1.34,0.28,2.02,0.3c2.76,0.08,5.53,0.1,8.29,0.21c2.45,0.1,4.91,0.27,7.36,0.42
	c0.28,0.02,0.66,0.38,0.6,0.57c-0.06,0.19-0.14,0.37-0.24,0.55c-0.05,0.09-0.12,0.18-0.2,0.23c-3.08,2.01-6.09,4.15-9.51,5.57
	c-1.22,0.51-2.49,0.93-3.74,1.36c-0.38,0.13-0.8,0.2-1.2,0.23c-1.94,0.14-3.88,0.36-5.82,0.35c-2.04-0.01-4.1-0.1-6.12-0.41
	c-1.29-0.2-2.55-0.75-3.75-1.3c-5.22-2.36-9.6-5.83-13.29-10.19c-0.25-0.29-0.12-0.86,0.24-1.05c1.91-0.98,3.81-1.98,5.74-2.92
	c2.86-1.39,5.84-2.54,8.91-3.25c3.07-0.71,6.17-1.47,9.4-1.26c4.74,0.31,9.31,1.29,13.61,3.37c2.49,1.2,4.94,2.46,7.24,3.99
	c0.14,0.09,0.19,0.33,0.25,0.51c0.08,0.22-0.27,0.54-0.6,0.55c-3.7,0.06-7.31,0.9-10.99,1.12c-2.25,0.14-4.49,0.4-6.73,0.64
	C58.28,172.75,57.74,172.7,57.31,173.09z"/>
<linearGradient id="SVGID_17_" gradientUnits="userSpaceOnUse" x1="250.5851" y1="438.59" x2="250.5851" y2="408.6493">
	<stop  offset="0" style="stop-color:#009149"/>
	<stop  offset="0.1213" style="stop-color:#009448"/>
	<stop  offset="0.3091" style="stop-color:#299B47"/>
	<stop  offset="0.5396" style="stop-color:#5FA845"/>
	<stop  offset="0.8017" style="stop-color:#91BC40"/>
	<stop  offset="1" style="stop-color:#BBD238"/>
</linearGradient>
<path class="st17" d="M263.84,415.18c-0.04,2.66-0.06,5.32-0.14,7.98c-0.03,1.25,0.06,2.45,0.6,3.6c0.18,0.39,0.46,0.69,0.86,0.83
	c0.67,0.23,1.37,0.4,2.05,0.61c0.33,0.11,0.47,0.8,0.21,1.04c-0.22,0.2-0.45,0.45-0.72,0.55c-0.48,0.16-0.99,0.3-1.49,0.31
	c-2.15,0.04-4.3,0.04-6.45,0.05c-0.86,0.01-1.57-0.32-2.25-0.84c-0.71-0.55-1.21-1.6-2.19-1.53c-0.76,0.06-1.47,0.63-2.21,0.97
	c-0.93,0.42-1.83,0.93-2.79,1.22c-0.97,0.29-2.01,0.35-3.01,0.53c-1.83,0.33-3.65,0.55-5.43-0.23c-1.25-0.09-2.32-0.62-3.42-1.22
	c-1.88-1.03-2.74-2.7-3.38-4.56c-0.76-2.22-0.47-4.45,0.1-6.66c0.1-0.38,0.34-0.75,0.6-1.06c1.19-1.43,2.57-2.62,4.3-3.38
	c1.4-0.62,2.76-1.36,4.36-1.29c1.16-0.44,2.39-0.53,3.59-0.77c1.11-0.22,2.22-0.39,3.35-0.35c1.15,0.04,2.23-0.28,3.3-0.63
	c0.44-0.14,0.73-0.44,0.79-0.85c0.19-1.42,0.33-2.84,0.17-4.28c-0.2-1.76-1.43-3.41-3.45-3.87c-3.07-0.7-6.11-0.55-9.07,0.55
	c-0.98,0.36-1.76,1.02-2.47,1.78c-0.35,0.37-0.69,0.75-1.04,1.11c-0.22,0.22-0.86,0.2-1.14-0.02c-0.99-0.75-1.57-3.13-0.97-4.2
	c0.19-0.34,0.46-0.74,0.8-0.89c1.39-0.62,2.64-1.61,4.23-1.73c3.87-1.26,7.87-1.33,11.86-1.08c2.45,0.15,4.82,0.93,6.8,2.52
	c1.2,0.97,2.27,2.12,2.79,3.59c0.44,1.25,0.69,2.56,0.69,3.91c0,2.76,0.08,5.53,0.13,8.29C263.8,415.18,263.82,415.18,263.84,415.18
	z M254.48,417.89c0.04,0,0.08,0,0.13,0c-0.06-1.22-0.09-2.45-0.19-3.67c-0.02-0.27-0.23-0.57-0.59-0.6
	c-0.3-0.03-0.61-0.07-0.92-0.04c-1.95,0.19-3.77,0.89-5.63,1.43c-0.77,0.22-1.46,0.73-2.15,1.17c-0.34,0.21-0.67,0.5-0.89,0.83
	c-1.36,2-1.75,4.11-0.63,6.36c0.86,1.73,2.27,2.54,4.19,2.58c1.06,0.02,1.99-0.36,2.97-0.66c1.02-0.32,1.84-0.87,2.59-1.59
	c0.68-0.66,1.13-1.45,1.13-2.43C254.48,420.14,254.48,419.01,254.48,417.89z"/>
<linearGradient id="SVGID_18_" gradientUnits="userSpaceOnUse" x1="144.1924" y1="447.7035" x2="144.1924" y2="404.6406">
	<stop  offset="0" style="stop-color:#009149"/>
	<stop  offset="0.1418" style="stop-color:#009349"/>
	<stop  offset="0.3046" style="stop-color:#009748"/>
	<stop  offset="0.4778" style="stop-color:#3F9F47"/>
	<stop  offset="0.6583" style="stop-color:#68AB44"/>
	<stop  offset="0.8423" style="stop-color:#92BD40"/>
	<stop  offset="1" style="stop-color:#BBD238"/>
</linearGradient>
<path class="st18" d="M147.33,396.77c0.51,0,1.03,0.05,1.54-0.01c2.35-0.26,4.52,0.45,6.49,1.53c2.54,1.4,4.21,3.57,4.32,6.64
	c0.02,0.51-0.04,1.03-0.02,1.54c0.05,1.42-0.5,2.55-1.42,3.61c-1.41,1.61-3.2,2.53-5.21,3.06c-1.98,0.52-3.98,0.97-5.98,1.43
	c-0.4,0.09-0.81,0.15-1.22,0.13c-2.18-0.07-4.26,0.6-6.4,0.8c-0.39,0.04-0.78,0.5-0.76,0.85c0.12,2.18,0.56,4.25,1.82,6.09
	c0.71,1.04,1.62,1.82,2.71,2.45c2.94,1.69,6.04,1.86,9.21,0.91c1.75-0.53,3.55-1.02,5.09-2.1c0.16-0.11,0.37-0.19,0.56-0.24
	c0.42-0.11,0.8-0.02,1.15,0.24c0.36,0.28,0.5,0.66,0.44,1.08c-0.15,1.08-0.76,1.92-1.6,2.53c-1.67,1.21-3.61,1.89-5.51,2.64
	c-0.19,0.07-0.4,0.09-0.6,0.12c-1.63,0.2-3.25,0.42-4.88,0.57c-1.64,0.16-3.29,0.18-4.89-0.28c-1.08-0.31-2.25-0.17-3.28-0.74
	c-0.62-0.35-1.34-0.53-1.93-0.92c-1.46-0.94-2.97-1.84-4.26-2.99c-1.31-1.16-2.07-2.77-2.7-4.41c-1.59-4.18-1.56-8.46-0.6-12.72
	c0.62-2.74,1.97-5.18,4.19-7.01c1.26-1.05,2.5-2.17,3.93-2.95c1.79-0.98,3.76-1.63,5.84-1.75c1.33-0.08,2.67-0.09,4-0.13
	C147.33,396.74,147.33,396.75,147.33,396.77z M138.53,410.79c0.01,0.14,0.04,0.65,0.09,1.15c0.03,0.37,0.44,0.74,0.85,0.72
	c0.71-0.02,1.42-0.04,2.13-0.11c0.61-0.06,1.21-0.31,1.8-0.29c1.84,0.05,3.3-0.92,4.84-1.69c0.27-0.13,0.49-0.36,0.71-0.58
	c1.99-2.02,2.33-5.86,0.74-8.23c-0.41-0.61-0.94-1.1-1.72-1.15c-1.12-0.07-2.23-0.11-3.35-0.13c-1.07-0.01-1.96,0.46-2.8,1.07
	c-0.75,0.56-1.36,1.25-1.76,2.08C139.03,405.79,138.52,408.05,138.53,410.79z"/>
<linearGradient id="SVGID_19_" gradientUnits="userSpaceOnUse" x1="253.1327" y1="56.652" x2="280.3419" y2="56.652">
	<stop  offset="0" style="stop-color:#009149"/>
	<stop  offset="1" style="stop-color:#BBD238"/>
</linearGradient>
<path class="st19" d="M280.29,43.78c0.14,3.64-0.91,7.28-2.27,10.81c-0.92,2.38-2.18,4.62-3.99,6.49c-0.21,0.22-0.41,0.46-0.59,0.7
	c-1.92,2.51-4.53,4.13-7.34,5.39c-3.92,1.76-7.76,3.64-11.35,6.01c-0.34,0.23-0.69,0.47-1.13,0.36c-0.17-0.04-0.4-0.18-0.44-0.32
	c-0.07-0.28-0.08-0.61-0.01-0.89c0.81-3.06,1.54-6.14,2.16-9.24c0.14-0.7,0.32-1.4,0.41-2.1c0.25-1.94,0.77-3.8,1.33-5.67
	c0.62-2.1,1.67-3.96,3.07-5.6c2.07-2.43,4.42-4.53,7.25-6.07c2.89-1.56,5.91-2.75,9.14-3.42C280.82,39.35,280.37,39.1,280.29,43.78z
	"/>
<linearGradient id="SVGID_20_" gradientUnits="userSpaceOnUse" x1="139.1909" y1="42.5063" x2="157.0828" y2="42.5063">
	<stop  offset="0" style="stop-color:#009149"/>
	<stop  offset="1" style="stop-color:#BBD238"/>
</linearGradient>
<path class="st20" d="M157.08,45.63c0,2.36-0.05,4.7-0.44,7.04c-0.18,1.1-0.18,2.24-0.19,3.37c-0.02,2.35,0.01,4.71,0,7.06
	c0,0.16-0.18,0.33-0.29,0.48c-0.14,0.19-0.61,0.12-0.83-0.1c-0.15-0.14-0.33-0.26-0.45-0.42c-1.13-1.46-2.29-2.89-3.35-4.39
	c-1.36-1.93-2.87-3.73-4.53-5.4c-1.3-1.31-2.47-2.74-3.57-4.22c-2.78-3.73-4.26-7.88-4.22-12.56c0-0.2,0-0.41,0-0.61
	c-0.13-3.52,0.56-6.91,1.69-10.23c1.42-4.18,1.52-4.42,1.96-4.3c1.56,0.42,2.43,1.79,3.65,2.68c1.49,1.09,2.81,2.39,4.08,3.73
	c2.95,3.1,5.03,6.68,6.1,10.85c0.23,0.9,0.4,1.79,0.4,2.72C157.08,42.76,157.08,44.19,157.08,45.63z"/>
<linearGradient id="SVGID_21_" gradientUnits="userSpaceOnUse" x1="275.5487" y1="436.9763" x2="277.5739" y2="398.4969">
	<stop  offset="0" style="stop-color:#009149"/>
	<stop  offset="0.1213" style="stop-color:#009448"/>
	<stop  offset="0.3091" style="stop-color:#299B47"/>
	<stop  offset="0.5396" style="stop-color:#5FA845"/>
	<stop  offset="0.8017" style="stop-color:#91BC40"/>
	<stop  offset="1" style="stop-color:#BBD238"/>
</linearGradient>
<path class="st21" d="M271.98,384.03c-0.79-0.29-1.56-0.54-2.31-0.86c-0.13-0.06-0.19-0.33-0.26-0.51
	c-0.09-0.23-0.01-0.42,0.22-0.52c0.46-0.21,0.91-0.51,1.39-0.59c1.82-0.29,3.64-0.56,5.47-0.74c1.11-0.11,2.25-0.09,3.37-0.06
	c0.72,0.02,1.4,0.61,1.55,1.28c0.29,1.3,0.48,2.61,0.47,3.95c-0.03,5.22-0.02,10.45-0.04,15.67c-0.02,5.73-0.08,11.47-0.06,17.2
	c0.01,2.05,0.15,4.09,0.28,6.14c0.08,1.33,0.64,2.36,2.08,2.68c0.1,0.02,0.19,0.07,0.29,0.11c0.49,0.23,0.7,0.71,0.56,1.28
	c-0.12,0.52-0.55,0.94-1.06,0.94c-3.17,0.02-6.35,0.03-9.52,0.01c-0.7,0-1.4-0.68-1.45-1.37c-0.09-1.22-0.15-2.45-0.14-3.68
	c0.03-11.67,0.08-23.35,0.11-35.02c0-1.23-0.05-2.46-0.11-3.68C272.77,385.42,272.53,384.64,271.98,384.03z"/>
<linearGradient id="SVGID_22_" gradientUnits="userSpaceOnUse" x1="228.6416" y1="184.9757" x2="266.4895" y2="184.9757">
	<stop  offset="0" style="stop-color:#009149"/>
	<stop  offset="1" style="stop-color:#BBD238"/>
</linearGradient>
<path class="st22" d="M230.59,189.52c3.17-0.55,6.29-1.53,9.43-2.41c0.35-0.1,0.67-0.32,1.1-0.53c-1.15-0.21-2.15,0.08-3.14,0.31
	c-2.91,0.67-5.88,0.87-8.84,1.09c-0.15,0.01-0.39-0.14-0.46-0.28c-0.08-0.15-0.03-0.38,0-0.56c0.01-0.09,0.1-0.17,0.18-0.24
	c0.88-0.85,1.78-1.7,2.65-2.56c2.94-2.91,6.32-5.19,10.1-6.87c1.61-0.71,3.29-1.07,5.03-1.34c4.85-0.75,9.6-0.21,14.35,0.76
	c1.51,0.31,3.01,0.62,4.51,0.95c0.29,0.06,0.58,0.2,0.82,0.38c0.12,0.09,0.2,0.36,0.17,0.53c-0.06,0.29-0.19,0.58-0.34,0.84
	c-1.58,2.65-3.44,5.11-5.53,7.36c-1.24,1.33-2.8,2.39-4.3,3.45c-1.08,0.76-2.26,1.43-3.47,1.96c-1.31,0.57-2.69,0.99-4.06,1.37
	c-0.88,0.24-1.81,0.37-2.73,0.4c-2.98,0.12-5.9-0.09-8.79-1.06c-2.14-0.72-4.24-1.5-6.28-2.46
	C230.55,190.41,230.45,190.06,230.59,189.52z"/>
<linearGradient id="SVGID_23_" gradientUnits="userSpaceOnUse" x1="89.6179" y1="59.0181" x2="110.9016" y2="59.0181">
	<stop  offset="0" style="stop-color:#009149"/>
	<stop  offset="1" style="stop-color:#BBD238"/>
</linearGradient>
<path class="st23" d="M110.88,76.09c0.06,1.3-0.05,1.58-0.33,1.61c-0.35,0.04-0.57-0.15-0.79-0.35c-0.61-0.54-1.21-1.1-1.81-1.66
	c-2.46-2.32-5.11-4.39-7.86-6.35c-1.91-1.36-3.67-2.95-5.14-4.81c-0.38-0.48-0.73-0.99-1.01-1.53c-1.92-3.64-3.42-7.43-3.81-11.58
	c-0.04-0.41-0.1-0.81-0.18-1.22c-0.59-3.05-0.27-6.12-0.07-9.18c0.03-0.52,0.59-0.83,1.13-0.67c0.1,0.03,0.2,0.04,0.3,0.07
	c2.68,1.02,5.32,2.16,7.68,3.8c3.31,2.3,6.2,5.03,8.07,8.67c1.13,2.2,1.73,4.57,2.14,7c0.36,2.13,0.49,4.27,0.49,6.42
	c0.01,2.57,0.58,5.07,0.87,7.61C110.68,74.85,110.84,75.76,110.88,76.09z"/>
<linearGradient id="SVGID_24_" gradientUnits="userSpaceOnUse" x1="292.0955" y1="95.7581" x2="325.0674" y2="95.7581">
	<stop  offset="0" style="stop-color:#009149"/>
	<stop  offset="1" style="stop-color:#BBD238"/>
</linearGradient>
<path class="st24" d="M324.82,84.83c0.12,0.32,0.29,0.54,0.24,0.68c-1.49,4.61-3.55,8.91-6.78,12.59c-1.43,1.63-3.06,2.95-4.96,4.03
	c-3.53,2.02-7.32,3.09-11.32,3.5c-1.02,0.1-2.02,0.23-3.01,0.51c-2.07,0.57-4.2,0.9-6.36,0.84c-0.16,0-0.39-0.15-0.47-0.3
	c-0.08-0.15-0.06-0.39-0.01-0.56c0.06-0.18,0.21-0.34,0.33-0.5c1.42-1.88,2.64-3.88,3.72-5.97c1.51-2.91,3.19-5.71,5.43-8.14
	c2.13-2.3,4.66-3.92,7.56-5.07C314.29,84.41,319.53,84.22,324.82,84.83z"/>
<linearGradient id="SVGID_25_" gradientUnits="userSpaceOnUse" x1="177.3963" y1="436.0585" x2="177.3963" y2="405.5285">
	<stop  offset="0" style="stop-color:#009149"/>
	<stop  offset="0.1213" style="stop-color:#009448"/>
	<stop  offset="0.3091" style="stop-color:#299B47"/>
	<stop  offset="0.5396" style="stop-color:#5FA845"/>
	<stop  offset="0.8017" style="stop-color:#91BC40"/>
	<stop  offset="1" style="stop-color:#BBD238"/>
</linearGradient>
<path class="st25" d="M176.45,401.13c0.86-0.08,1.34-0.65,1.85-1.13c1.45-1.37,3.16-2.22,5.05-2.8c0.9-0.28,1.79-0.42,2.71-0.4
	c1.12,0.02,2.25,0.05,3.37,0.14c0.67,0.05,1.44,0.77,1.49,1.37c0.21,2.16,0.13,4.29-0.71,6.34c-0.28,0.67-1.08,1.05-1.77,0.82
	c-0.29-0.1-0.58-0.21-0.85-0.34c-2.01-0.98-4.15-1.03-6.31-0.87c-1.68,0.12-2.87,1.05-3.73,2.39c-0.73,1.13-1.08,2.37-1.05,3.78
	c0.1,5.84,0.1,11.67,0.13,17.51c0,0.31-0.02,0.61-0.05,0.92c-0.06,0.65-0.57,1.18-1.19,1.18c-2.15,0.01-4.3,0.01-6.45-0.03
	c-0.92-0.02-1.5-0.65-1.56-1.58c-0.05-0.82-0.04-1.64-0.04-2.46c-0.01-6.86-0.01-13.73-0.02-20.59c0-1.02,0-2.05-0.07-3.07
	c-0.04-0.61-0.19-1.21-0.36-1.8c-0.15-0.51-0.55-0.86-1.06-1.03c-0.58-0.19-1.18-0.29-1.75-0.48c-0.14-0.05-0.23-0.32-0.29-0.51
	c-0.08-0.27,0.16-0.66,0.4-0.73c0.19-0.06,0.38-0.17,0.58-0.17c2.35-0.08,4.71-0.15,7.06-0.2c0.41-0.01,0.82,0.06,1.22,0.13
	c0.84,0.14,1.54,0.55,2,1.29C175.52,399.6,175.99,400.38,176.45,401.13z"/>
<linearGradient id="SVGID_26_" gradientUnits="userSpaceOnUse" x1="207.0536" y1="129.0855" x2="226.7718" y2="129.0855">
	<stop  offset="0" style="stop-color:#009149"/>
	<stop  offset="1" style="stop-color:#BBD238"/>
</linearGradient>
<path class="st26" d="M211.92,138.63c-1.22,2.13-2.43,4.26-3.66,6.38c-0.08,0.14-0.29,0.21-0.45,0.32
	c-0.17-0.24-0.48-0.49-0.47-0.73c0.15-3.08-0.33-6.13-0.29-9.2c0.07-5.8,2.19-10.79,6.22-14.91c1.86-1.91,4.11-3.37,6.35-4.81
	c1.73-1.11,3.48-2.15,5.45-2.78c0.55-0.17,0.98,0.09,1.1,0.71c0.02,0.1,0.05,0.2,0.06,0.3c0.5,3.25,0.74,6.51,0.32,9.79
	c-0.09,0.71-0.14,1.43-0.24,2.14c-0.78,5.37-3.07,9.91-7.36,13.37c-1.75,1.41-3.47,2.88-5.38,4.08c-0.6,0.38-1.21,0.75-1.84,1.1
	c-0.44,0.24-0.9,0.44-1.45,0.7c-0.09-0.4-0.27-0.73-0.19-0.96c0.44-1.14,0.9-2.28,1.44-3.38c0.34-0.69,0.3-1.38,0.24-2.09
	c0.06,0.03,0.12,0.06,0.18,0.08c-0.05,0.01-0.1,0.03-0.15,0.04C211.86,138.74,211.89,138.69,211.92,138.63z"/>
<linearGradient id="SVGID_27_" gradientUnits="userSpaceOnUse" x1="131.7659" y1="182.9955" x2="197.1024" y2="182.9955">
	<stop  offset="0" style="stop-color:#009149"/>
	<stop  offset="1" style="stop-color:#BBD238"/>
</linearGradient>
<path class="st27" d="M142.07,173.72c2.56,0.06,5.12,0.12,7.69,0.19c0.61,0.02,1.23,0.04,1.84,0.11c4.28,0.45,8.57,0.84,12.84,1.39
	c2.54,0.33,5.06,0.77,7.6,1.12c1.72,0.24,3.42,0.66,5.1,1.12c4.34,1.19,8.68,2.43,12.77,4.36c1.49,0.7,2.88,1.55,4.11,2.67
	c1.23,1.13,2.2,2.43,2.75,4.02c0.38,1.09,0.52,2.19,0.04,3.29c-0.07,0.15-0.31,0.24-0.48,0.32c-0.04,0.02-0.16-0.09-0.23-0.16
	c-0.07-0.07-0.12-0.15-0.17-0.24c-0.04-0.09-0.07-0.19-0.09-0.29c-0.42-1.85-1.7-3.01-3.25-3.9c-2.05-1.18-4.23-2.06-6.51-2.69
	c-0.69-0.19-1.4-0.35-2.07-0.59c-0.97-0.35-1.96-0.57-2.99-0.65c-3.76-0.31-7.54-1.36-11.31-1.81c-6.87-0.82-13.79-1-20.7-1.35
	c-1.02-0.05-2.05-0.06-3.07-0.07c-2.67-0.02-5.33-0.05-8-0.05c-0.75,0-1.46-0.17-1.95-0.74c-1.4-1.63-2.76-3.29-4.13-4.95
	c-0.24-0.29,0.03-0.98,0.37-0.99c1.33-0.06,2.66-0.13,3.99-0.15c1.95-0.02,3.9-0.01,5.84-0.01
	C142.06,173.7,142.07,173.71,142.07,173.72z"/>
<linearGradient id="SVGID_28_" gradientUnits="userSpaceOnUse" x1="30.3196" y1="146.2967" x2="62.4162" y2="146.2967">
	<stop  offset="0" style="stop-color:#009149"/>
	<stop  offset="1" style="stop-color:#BBD238"/>
</linearGradient>
<path class="st28" d="M52.51,155.21c-1.72-0.11-3.64-0.19-5.57-0.56c-2.56-0.49-4.87-1.47-7.1-2.74c-0.63-0.36-1.2-0.77-1.74-1.25
	c-2.73-2.41-4.7-5.4-6.4-8.58c-0.44-0.81-0.84-1.64-1.24-2.47c-0.32-0.65-0.03-1.07,0.76-1.3c2.39-0.68,4.86-0.87,7.3-0.93
	c2.44-0.06,4.93,0.07,7.18,1.28c1.86,0.4,3.37,1.44,4.82,2.6c1.05,0.84,1.98,1.77,2.73,2.89c0.68,1.02,1.41,2.01,2.17,2.98
	c1.97,2.51,4.2,4.75,6.89,6.51c0.11,0.07,0.11,0.35,0.12,0.53c0,0.05-0.13,0.15-0.22,0.16c-0.4,0.07-0.8,0.13-1.21,0.16
	c-0.92,0.07-1.86,0.02-2.76,0.2C56.41,155.07,54.56,154.99,52.51,155.21z"/>
<linearGradient id="SVGID_29_" gradientUnits="userSpaceOnUse" x1="203.8647" y1="37.2167" x2="219.3019" y2="37.2167">
	<stop  offset="0" style="stop-color:#009149"/>
	<stop  offset="1" style="stop-color:#BBD238"/>
</linearGradient>
<path class="st29" d="M203.87,38.63c0.02-2.8,0.58-5.45,1.92-7.94c2.21-4.13,5.16-7.59,9.07-10.2c0.24-0.16,0.65-0.08,0.82,0.15
	c0.06,0.08,0.16,0.14,0.2,0.23c1.36,2.64,2.66,5.28,2.88,8.32c0.05,0.7,0.38,1.38,0.46,2.09c0.29,2.58-0.09,5.08-1.02,7.5
	c-1.08,2.8-2.68,5.3-4.72,7.47c-2.24,2.39-4.39,4.85-6.32,7.49c-0.11,0.14-0.32,0.22-0.5,0.3c-0.16,0.08-0.47-0.27-0.54-0.62
	c-0.06-0.3-0.15-0.6-0.19-0.9c-0.04-0.3-0.07-0.61-0.06-0.92c0.09-2.28-0.49-4.45-0.98-6.64C204.4,42.87,203.82,40.8,203.87,38.63z"
	/>
<path class="st30" d="M62.72,412.85c-1.44,0.09-2.85,0.02-4.27-0.3c-0.89-0.2-1.82-0.23-2.74-0.26c-2.87-0.09-5.73-0.14-8.6-0.23
	c-1.84-0.06-3.67-0.23-5.48-0.67c-0.79-0.19-1.61-0.27-2.42-0.33c-1.63-0.12-3.27-0.28-4.91-0.26c-2.98,0.03-5.92-0.44-8.89-0.5
	c-1.13-0.02-2.24-0.2-3.23-0.78c-0.05-0.03-0.09-0.15-0.07-0.22c0.02-0.1,0.07-0.23,0.15-0.26c0.27-0.13,0.56-0.3,0.84-0.31
	c3.58-0.13,7.16-0.22,10.74-0.34c0.61-0.02,1.23-0.05,1.83-0.14c4.66-0.74,9.35-1.09,14.06-1.19c3.07-0.07,6.13-0.25,9.19-0.63
	c2.02-0.25,4.08-0.19,6.13-0.24c0.78-0.02,1.79,0.81,2.02,1.63c0.33,1.21,0.32,2.43-0.05,3.63c-0.23,0.73-1.03,1.37-1.84,1.41
	C64.35,412.88,63.53,412.85,62.72,412.85z"/>
<path class="st31" d="M302.92,412.86c-0.28,0-1.2-0.01-2.12,0c-1.2,0.02-1.9-0.66-2.33-1.67c-0.46-1.08-0.4-2.21-0.11-3.31
	c0.15-0.6,1.15-1.68,2.01-1.69c1.85-0.02,3.69-0.09,5.52,0.21c2.74,0.46,5.5,0.54,8.27,0.68c5.01,0.25,10.03,0.46,15.01,1.14
	c0.61,0.08,1.22,0.12,1.84,0.15c3.07,0.15,6.14,0.28,9.21,0.44c0.39,0.02,0.78,0.19,1.16,0.32c0.08,0.03,0.14,0.15,0.17,0.25
	c0.02,0.05-0.03,0.17-0.09,0.2c-0.82,0.48-1.76,0.56-2.66,0.62c-3.78,0.29-7.56,0.54-11.35,0.76c-1.54,0.09-3.05,0.24-4.57,0.49
	c-2.22,0.36-4.48,0.59-6.72,0.64C311.94,412.19,307.75,412.37,302.92,412.86z"/>
<g>
	<polygon class="st32" points="83.63,132.89 145.74,204.15 82.88,133.55 	"/>
</g>
<g>
	<polygon class="st32" points="68.59,141.6 103.29,199.24 67.74,142.12 	"/>
</g>
<path class="st33" d="M85.2,186.11l-3.16-4.64c0,0-35.67,10.21-6.78,25.65c0,0,33.66,14.31,81.34,12.03c0,0,28.27-0.38,63.81-15.07
	c0,0,6.37-2.52,9.02,6.29c0,0,9.56-19.45-15.03-16.02c-12.33,1.72-12.88,10.39-61.61,13.43c-18.51,1.15-52.4-1.03-70.41-8.85
	C79.34,197.6,69.76,192.31,85.2,186.11z"/>
</svg>
