<svg width="698" height="91" viewBox="0 0 698 91" fill="none" xmlns="http://www.w3.org/2000/svg">
<path d="M0.714439 76.9672C-0.015561 76.0772 -0.0255613 75.0672 0.454439 74.0972C0.904439 73.1872 1.47444 72.3172 2.07444 71.4872C3.04444 70.1472 3.81444 68.7072 4.47444 67.2072C6.20444 63.2672 8.06444 59.3972 9.73444 55.4372C10.7644 52.9872 11.8844 50.5672 12.8444 48.0872C14.7344 43.2172 17.1144 38.5472 18.8944 33.6372C19.2444 32.6772 19.6444 31.7172 20.1444 30.8272C21.7344 27.9472 22.8644 24.8672 24.0944 21.8272C25.2544 18.9772 26.3844 16.1272 27.4844 13.2572C27.8544 12.3072 28.0444 11.2872 28.4244 10.3372C28.8344 9.32721 28.7444 8.33722 28.5444 7.31722C28.2544 5.81722 27.4644 4.68722 26.1444 3.90722C25.6144 3.59722 25.0844 3.28722 24.5744 2.93722C24.0044 2.54722 23.8744 1.96722 23.9544 1.31722C24.0144 0.807223 24.4544 0.287216 24.8944 0.247216C25.4044 0.197216 25.9144 0.167229 26.4244 0.167229C30.5244 0.157229 34.6344 0.217221 38.7344 0.127221C41.9644 0.0572207 44.2244 1.64723 45.8544 4.16723C47.2444 6.31723 48.3844 8.62721 49.1644 11.0872C50.0044 13.7272 51.0844 16.2772 52.1544 18.8272C52.7544 20.2372 53.3444 21.6572 53.8444 23.1072C55.2844 27.2772 57.1744 31.2572 58.7444 35.3672C59.4744 37.2772 60.1744 39.2072 60.9044 41.1172C61.1944 41.8872 61.4944 42.6472 61.8544 43.3872C63.1344 45.9672 64.0944 48.6672 64.9944 51.3972C65.9844 54.4172 67.0844 57.3972 68.3344 60.3072C68.7344 61.2472 69.0744 62.2172 69.4544 63.1672C70.0244 64.5972 70.6044 66.0172 71.1644 67.4472C71.9344 69.4072 73.2044 70.9872 74.8344 72.2972C75.3944 72.7472 75.9744 73.1572 76.5044 73.5572C76.5844 73.8172 76.6944 74.0072 76.6944 74.2072C76.7744 76.9972 77.0644 77.2072 74.0044 77.2172C70.5144 77.2272 67.0344 77.2372 63.5444 77.2072C62.3144 77.1972 61.1144 77.0072 59.9344 76.5672C57.6744 75.7372 56.0944 74.2672 55.2244 72.0372C54.7844 70.8872 54.3944 69.7272 53.9644 68.5672C53.3544 66.9372 52.7544 65.2972 52.0844 63.6972C51.0144 61.1472 49.8544 58.6372 49.0744 55.9672C48.8444 55.1872 48.4644 54.4472 48.1244 53.7072C47.9444 53.3172 47.6144 53.0672 47.1744 53.0272C46.7644 52.9872 46.3544 52.9772 45.9444 52.9772C39.3744 52.9772 32.8144 52.9572 26.2444 52.9772C24.5144 52.9872 22.7644 52.9272 21.1344 53.2572C20.0944 54.4572 19.6344 55.8172 19.1144 57.1572C17.8144 60.4972 16.5144 63.8372 15.2344 67.1872C14.5044 69.0972 13.7544 71.0072 13.1444 72.9572C12.2544 75.8272 10.0844 77.3672 6.84444 77.2572C5.00444 77.1972 3.15444 77.1772 1.30444 77.1272C1.11444 77.1272 0.924439 77.0272 0.714439 76.9672ZM34.6244 19.8872C33.3444 22.6672 32.0344 25.4372 30.7844 28.2372C30.1944 29.5472 29.6544 30.8772 29.1944 32.2272C28.2744 34.9472 27.3344 37.6472 26.1744 40.2772C25.6444 41.4872 25.2944 42.7872 24.8844 44.0472C24.7444 44.4672 25.0244 44.9272 25.4144 44.9572C26.0244 45.0072 26.6444 45.0772 27.2544 45.0772C32.1744 45.0972 37.0944 45.1072 42.0244 45.0972C42.6344 45.0972 43.2444 45.0072 43.8544 44.9472C44.1044 44.9272 44.3744 44.5472 44.3544 44.2772C44.3144 43.8672 44.3244 43.4372 44.1944 43.0572C43.7244 41.7072 43.2444 40.3572 42.7044 39.0372C41.0844 35.0572 39.3844 31.1172 37.9344 27.0672C37.1744 24.9472 36.2844 22.8772 35.4544 20.7772C35.3044 20.3872 35.0944 20.0472 34.6244 19.8872Z" fill="#B79D67" stroke="black" stroke-width="0.25" stroke-miterlimit="10"/>
<path d="M181.695 49.9572C181.695 55.3972 181.695 60.8272 181.695 66.2672C181.695 67.1872 181.675 68.1172 181.785 69.0372C181.885 69.8372 182.085 70.6572 182.395 71.4072C182.715 72.1872 183.365 72.7472 184.225 72.9272C184.925 73.0772 185.645 73.1372 186.345 73.2472C187.135 73.3672 187.535 73.8372 187.585 74.7372C187.595 74.9372 187.595 75.1472 187.585 75.3472C187.545 75.9972 187.165 76.4972 186.525 76.7072C186.135 76.8272 185.735 76.9672 185.335 76.9972C181.645 77.2772 177.955 77.2872 174.255 77.1872C171.765 77.1172 169.725 76.0172 168.045 74.2172C167.415 73.5472 166.835 72.8272 166.205 72.1572C166.095 72.0372 165.835 72.0072 165.645 72.0172C165.445 72.0372 165.245 72.1272 165.075 72.2272C164.295 72.7172 163.485 73.1772 162.765 73.7472C160.725 75.3572 158.395 76.4272 155.975 77.2872C154.725 77.7272 153.425 78.1572 152.125 78.2672C147.705 78.6372 143.355 78.6072 139.175 76.6472C135.415 74.8872 132.875 72.1572 131.475 68.3272C131.055 67.1772 130.725 65.9672 130.545 64.7672C130.195 62.3372 129.875 59.8972 129.895 57.4172C129.945 49.7272 129.915 42.0272 129.915 34.3372C129.915 33.5172 129.885 32.6972 129.875 31.8772C129.855 30.3172 129.215 29.1172 127.865 28.3072C127.335 27.9972 126.785 27.6972 126.325 27.3072C126.035 27.0572 125.815 26.6472 125.735 26.2772C125.625 25.7872 125.665 25.2572 125.685 24.7472C125.715 24.1172 126.155 23.5472 126.775 23.4072C127.465 23.2472 128.185 23.0672 128.885 23.0672C132.985 23.0372 137.095 23.0172 141.195 23.0572C143.275 23.0772 144.775 24.4872 145.245 26.5772C145.715 28.6972 145.835 30.8372 145.835 32.9872C145.815 41.2972 145.795 49.6072 145.775 57.9172C145.765 59.9672 145.735 62.0272 146.335 64.0172C146.545 64.6972 146.735 65.3972 147.045 66.0372C147.905 67.8072 149.315 68.8972 151.285 69.2372C153.655 69.6572 156.005 69.5472 158.295 68.8672C161.215 68.0072 163.235 65.9872 164.645 63.3872C165.115 62.5172 165.255 61.4272 165.405 60.4272C165.705 58.3972 165.915 56.3672 165.915 54.3072C165.925 47.6372 166.015 40.9672 166.085 34.3072C166.095 33.1772 166.125 32.0572 165.835 30.9472C165.525 29.7972 164.965 28.8772 163.825 28.3872C163.635 28.3072 163.465 28.1872 163.275 28.1172C161.365 27.4872 161.575 25.5472 162.145 24.2772C162.315 23.8972 162.635 23.6072 163.045 23.4872C163.435 23.3772 163.845 23.3172 164.255 23.2972C168.355 23.0572 172.455 22.9872 176.565 23.0372C177.185 23.0472 177.795 23.0372 178.405 23.0972C179.875 23.2672 180.865 24.1872 181.005 25.6872C181.265 28.6472 181.725 31.5872 181.695 34.5772C181.645 39.7072 181.685 44.8372 181.685 49.9672C181.695 49.9572 181.695 49.9572 181.695 49.9572Z" fill="#B79D67" stroke="black" stroke-width="0.25" stroke-miterlimit="10"/>
<path d="M322.305 72.1072C320.125 74.0172 317.595 75.1772 315.095 76.3372C312.675 77.4672 310.055 78.0572 307.385 78.3172C306.165 78.4372 304.925 78.4172 303.695 78.4272C301.625 78.4372 299.665 77.7772 297.665 77.4072C295.935 77.0772 294.365 76.2572 292.905 75.3272C289.765 73.3372 287.585 70.6072 286.715 66.9072C286.405 65.6072 286.135 64.3272 286.105 62.9772C286.045 60.2272 286.775 57.6772 288.185 55.3772C289.855 52.6472 291.955 50.3172 294.925 48.8372C299.105 46.7572 303.515 45.5572 308.135 45.0572C308.445 45.0272 308.755 45.0472 309.055 44.9772C311.875 44.3172 314.755 44.3872 317.625 44.3572C318.755 44.3472 319.885 44.3772 320.975 44.0372C321.525 43.8672 321.915 43.5072 321.925 42.9772C321.965 40.9272 322.065 38.8772 321.965 36.8372C321.865 34.8472 321.015 33.0772 319.755 31.5372C319.225 30.8972 318.545 30.4272 317.775 30.1072C316.455 29.5672 315.105 29.1372 313.675 28.9072C310.485 28.3972 307.315 28.7272 304.185 29.1672C301.835 29.5072 299.705 30.6472 297.965 32.3172C297.155 33.0972 296.445 33.9772 295.695 34.8172C295.355 35.1972 295.045 35.6172 294.655 35.9372C294.445 36.1072 294.065 36.2072 293.805 36.1372C292.545 35.8172 291.595 35.1472 291.195 33.8072C290.835 32.6172 290.605 31.4272 290.665 30.1772C290.765 27.9472 291.685 26.2972 293.855 25.3972C296.615 24.2472 299.505 23.5972 302.405 22.9472C307.365 21.8472 312.395 21.9172 317.405 22.0472C320.885 22.1372 324.305 22.8072 327.595 24.0972C330.475 25.2172 332.675 27.1272 334.605 29.4272C335.125 30.0472 335.565 30.7772 335.865 31.5372C336.995 34.3972 337.995 37.2972 337.945 40.4472C337.905 43.3172 337.955 46.1872 337.945 49.0572C337.935 55.2072 337.915 61.3572 337.925 67.5072C337.925 68.6272 338.005 69.7572 338.135 70.8772C338.235 71.7772 338.835 72.3572 339.665 72.6272C340.245 72.8172 340.855 72.9172 341.465 72.9872C342.075 73.0572 342.695 73.0372 343.305 73.0772C343.645 73.0972 344.155 73.5572 344.155 73.8572C344.155 74.5672 344.175 75.2972 344.085 75.9972C344.035 76.4072 343.685 76.7472 343.265 76.8172C342.255 76.9872 341.235 77.1672 340.225 77.1872C337.355 77.2572 334.485 77.3272 331.615 77.2572C328.735 77.1972 326.215 76.2372 324.295 73.9472C323.775 73.3272 323.365 72.5872 322.305 72.1072ZM321.985 56.7972C321.975 56.7972 321.965 56.7972 321.965 56.7972C321.965 54.9572 321.975 53.1172 321.955 51.2772C321.945 50.2772 321.625 49.9572 320.715 49.9272C318.665 49.8572 316.635 50.0172 314.605 50.3172C311.695 50.7572 309.145 51.9972 306.695 53.4872C304.685 54.7172 303.415 56.5272 302.875 58.8372C302.755 59.3372 302.635 59.8272 302.515 60.3272C301.915 62.8572 302.485 65.1972 303.785 67.3772C304.725 68.9472 306.125 69.9472 307.965 70.2072C310.305 70.5372 312.645 70.5772 314.975 69.9772C317.605 69.3072 319.595 67.8672 320.895 65.4772C321.585 64.2072 322.075 62.8972 322.015 61.3972C321.935 59.8672 321.985 58.3372 321.985 56.7972Z" fill="#B79D67" stroke="black" stroke-width="0.25" stroke-miterlimit="10"/>
<path d="M101.805 58.2872C103.195 56.6272 103.885 54.5872 104.625 52.5672C105.475 50.2572 106.245 47.9272 107.105 45.6272C107.785 43.8072 108.535 42.0072 109.285 40.2172C110.445 37.4272 110.845 34.4971 111.005 31.5171C111.095 29.7771 110.385 28.3272 109.235 27.0772C108.885 26.7072 108.465 26.3972 108.085 26.0672C107.475 25.5372 107.435 24.8372 107.515 24.0972C107.555 23.7272 107.905 23.2871 108.245 23.2071C108.545 23.1371 108.845 23.0372 109.145 23.0372C112.425 23.0172 115.705 23.0071 118.995 22.9871C120.355 22.9771 121.505 23.8271 121.925 25.2671C122.385 26.8671 122.555 28.4872 122.075 30.1172C121.435 32.2772 120.895 34.4772 120.105 36.5772C118.955 39.6472 117.685 42.6672 116.375 45.6772C114.615 49.7072 112.675 53.6672 110.985 57.7272C108.855 62.8372 106.535 67.8572 104.115 72.8272C103.035 75.0272 101.875 77.2272 100.465 79.2272C98.455 82.0872 96.055 84.6272 92.895 86.3072C92.445 86.5472 91.985 86.7772 91.565 87.0672C88.615 89.0872 85.225 89.8472 81.785 90.4372C80.785 90.6072 79.745 90.5572 78.715 90.5272C77.545 90.4872 76.925 89.7671 76.865 88.5171C76.855 88.2071 76.845 87.9072 76.845 87.5972C76.855 85.9572 77.065 85.7072 78.725 85.3972C82.755 84.6272 86.275 82.8472 89.295 80.0972C90.045 79.4172 90.665 78.5772 91.305 77.7772C92.275 76.5572 92.505 75.3372 91.745 73.8072C90.015 70.3272 88.675 66.6571 86.865 63.2071C86.065 61.6671 85.475 60.0172 84.715 58.4472C83.425 55.7772 82.035 53.1472 80.745 50.4672C78.665 46.1272 76.615 41.7772 74.605 37.4072C73.625 35.2672 72.605 33.1372 71.385 31.1172C70.855 30.2472 70.215 29.4472 69.585 28.6372C68.875 27.7272 67.935 27.1172 66.875 26.6772C66.235 26.4172 65.955 25.8972 65.945 25.2272C65.935 24.9172 65.935 24.6172 65.945 24.3072C65.965 23.8072 66.405 23.2672 66.835 23.1872C67.135 23.1372 67.445 23.0672 67.745 23.0672C71.535 23.0372 75.335 22.9772 79.125 23.0272C81.005 23.0572 82.725 23.7672 84.245 24.8872C84.735 25.2472 85.205 25.6971 85.505 26.2071C86.605 28.0471 87.875 29.7871 88.755 31.7671C90.755 36.2571 92.865 40.7072 94.945 45.1572C96.905 49.3272 98.895 53.4872 100.865 57.6572C101.055 58.0372 101.275 58.3272 101.805 58.2872Z" fill="#B79D67" stroke="black" stroke-width="0.25" stroke-miterlimit="10"/>
<path d="M259.284 29.5573C260.574 28.9473 261.604 28.1473 262.544 27.1973C265.804 23.9073 269.764 22.2473 274.384 22.1073C275.924 22.0573 277.434 21.9673 278.974 22.3373C280.204 22.6273 281.294 23.1373 282.314 23.8273C283.294 24.4973 283.824 25.4573 284.014 26.6373C284.274 28.2973 284.034 29.9273 283.714 31.5273C283.294 33.6373 282.644 35.6873 281.454 37.5273C281.084 38.0973 280.544 38.3373 279.894 38.3473C278.934 38.3673 278.094 38.0973 277.384 37.3973C276.584 36.6073 275.744 35.8573 274.884 35.1273C273.994 34.3773 272.954 33.9773 271.784 33.9573C270.554 33.9373 269.314 33.8473 268.094 33.9373C264.594 34.2073 262.204 36.0273 260.854 39.2673C260.164 40.9073 259.924 42.6173 259.924 44.3773C259.924 47.2473 259.914 50.1173 259.914 52.9873C259.904 58.4173 259.904 63.8573 259.894 69.2873C259.894 70.3173 259.884 71.3373 259.844 72.3573C259.824 72.9673 259.774 73.5873 259.654 74.1873C259.314 75.8973 258.304 77.0673 256.254 77.0673C253.694 77.0673 251.124 77.1173 248.564 77.1373C248.054 77.1373 247.534 77.1373 247.024 77.0973C245.524 76.9673 244.324 75.9273 244.024 74.4473C243.904 73.8473 243.884 73.2273 243.884 72.6173C243.924 61.1373 243.974 49.6573 244.004 38.1673C244.014 35.9173 243.914 33.6573 243.844 31.4073C243.824 30.7973 243.794 30.1673 243.634 29.5773C243.284 28.3573 242.704 27.2973 241.274 27.0273C240.374 26.8573 239.484 26.6073 238.594 26.3873C237.994 26.2373 237.584 25.7473 237.514 25.0573C237.484 24.7573 237.504 24.4473 237.544 24.1473C237.594 23.6973 237.874 23.3873 238.284 23.2573C238.664 23.1273 239.084 23.0373 239.484 23.0373C243.274 23.0173 247.074 22.9673 250.864 23.0273C253.984 23.0773 256.324 24.5473 257.904 27.2373C258.334 28.0173 258.614 28.9173 259.284 29.5573Z" fill="#B79D67" stroke="black" stroke-width="0.25" stroke-miterlimit="10"/>
<path d="M209.785 30.4372C210.725 29.5472 211.415 28.9472 212.045 28.2872C213.835 26.4072 215.995 25.0072 218.215 23.7272C220.195 22.5872 222.415 22.0572 224.695 21.9672C227.065 21.8772 229.405 22.1372 231.675 22.9072C233.855 23.6472 235.105 25.2872 234.865 27.5672C234.595 30.1072 234.335 32.6672 233.385 35.0772C233.125 35.7372 232.805 36.3872 232.425 36.9872C231.615 38.2772 229.905 38.5672 228.695 37.6172C228.135 37.1772 227.625 36.6572 227.095 36.1772C226.715 35.8372 226.355 35.4672 225.945 35.1672C225.195 34.6172 224.355 34.2172 223.415 34.1172C221.365 33.8872 219.315 33.9172 217.285 34.2672C214.645 34.7172 212.875 36.3272 211.685 38.6272C211.315 39.3472 210.945 40.1272 210.805 40.9172C210.455 42.8272 209.945 44.7072 209.955 46.6772C209.995 54.8872 210.005 63.0872 210.005 71.2972C210.005 72.4172 209.965 73.5572 209.825 74.6672C209.675 75.8872 208.525 76.9172 207.325 77.0372C207.225 77.0472 207.125 77.0572 207.015 77.0572C203.935 77.0272 200.855 76.9972 197.785 76.9572C196.695 76.9472 195.815 76.4672 195.105 75.6572C194.755 75.2672 194.475 74.8472 194.445 74.3072C194.415 73.5872 194.395 72.8772 194.395 72.1572C194.405 60.4672 194.425 48.7672 194.435 37.0772C194.435 35.3372 194.375 33.5872 194.405 31.8472C194.425 30.5572 193.985 29.4472 193.375 28.3572C192.885 27.4972 192.145 26.9772 191.225 26.7472C190.535 26.5772 189.805 26.5472 189.095 26.4372C188.315 26.3272 187.895 25.7972 187.875 24.9372C187.875 24.8372 187.875 24.7272 187.885 24.6272C187.935 23.9572 188.345 23.3772 188.925 23.2672C189.525 23.1472 190.135 23.0272 190.745 23.0272C194.335 22.9972 197.925 23.0172 201.515 22.9672C203.595 22.9372 205.305 23.8672 206.845 25.0672C207.725 25.7472 208.305 26.7672 208.705 27.8472C208.985 28.6172 209.325 29.3472 209.785 30.4372Z" fill="#B79D67" stroke="black" stroke-width="0.25" stroke-miterlimit="10"/>
<path d="M430.672 58.7892C430.672 54.4324 430.687 50.0605 430.656 45.7038C430.656 44.9296 430.626 44.125 430.411 43.3963C430.319 43.0472 429.812 42.7436 429.444 42.5311C429.198 42.3945 428.83 42.3944 428.523 42.3944C419.696 42.3944 410.885 42.3944 402.058 42.3944C401.751 42.3944 401.368 42.3489 401.137 42.5159C400.784 42.7588 400.355 43.1079 400.262 43.4874C400.094 44.2313 400.078 45.0207 400.078 45.7949C400.078 52.0188 400.14 58.2579 400.109 64.4818C400.094 67.1383 400.201 69.7645 401.091 72.3148C401.337 73.0434 401.352 73.848 401.46 74.607C401.521 75.0017 400.738 75.9277 400.324 75.9732C400.017 76.0188 399.71 76.125 399.387 76.125C394.352 76.1098 389.302 76.0947 384.267 76.0643C383.96 76.0643 383.669 75.8973 383.362 75.8518C383.07 75.791 382.533 75.0928 382.609 74.774C382.732 74.1668 382.748 73.4988 383.055 72.9979C384.636 70.5235 385.019 67.7759 385.035 64.9372C385.05 61.3546 385.096 57.7721 385.096 54.1895C385.111 41.7265 385.127 29.2635 385.142 16.8157C385.142 16.1933 385.111 15.5709 385.158 14.9485C385.326 12.4742 384.651 10.3338 382.655 8.70947C382.425 8.52731 382.333 8.19331 382.18 7.92007C381.965 7.55574 382.425 6.46278 382.855 6.32616C383.3 6.18954 383.745 5.94665 384.19 5.94665C388.75 5.91629 393.324 5.8859 397.883 5.91626C399.126 5.93144 399.909 6.72082 400.001 7.96561C400.094 9.21039 400.109 10.4552 400.109 11.7C400.094 18.5463 400.063 25.4077 400.047 32.254C400.047 32.8764 400.032 33.4988 400.063 34.1212C400.094 34.941 400.723 35.5633 401.567 35.5785C404.714 35.6544 407.861 35.7759 411.008 35.7759C416.519 35.7759 422.029 35.7 427.54 35.6241C428.308 35.6089 429.075 35.4267 429.827 35.2294C430.073 35.1687 430.349 34.8499 430.426 34.5918C430.58 33.9998 430.672 33.3774 430.672 32.755C430.733 26.9865 430.718 21.2332 430.825 15.4647C430.887 12.1554 430.656 8.93716 428.768 6.03773C428.338 5.38498 428.937 4.32237 429.674 4.24647C430.15 4.20093 430.61 4.125 431.086 4.125C435.492 4.125 439.913 4.12501 444.318 4.1402C444.948 4.1402 445.577 4.24645 446.191 4.32235C446.621 4.38307 447.296 5.33945 447.204 5.76449C446.851 7.28252 446.529 8.80052 446.084 10.2882C445.684 11.6544 445.546 13.0358 445.546 14.4324C445.546 31.7227 445.546 49.0131 445.546 66.2882C445.546 66.44 445.562 66.607 445.546 66.7588C445.347 69.4305 446.191 71.6469 448.325 73.3622C448.662 73.6355 448.831 74.1212 449.077 74.5007C449.246 74.774 448.939 75.6241 448.647 75.7152C448.202 75.8518 447.757 76.0947 447.312 76.0947C442.737 76.1098 438.178 76.0795 433.604 76.0643C433.297 76.0643 432.974 76.0188 432.667 75.9732C431.808 75.867 430.825 74.9713 430.733 74.1668C430.672 73.5444 430.61 72.922 430.61 72.2996C430.595 67.7911 430.61 63.2674 430.61 58.7588C430.626 58.7892 430.641 58.7892 430.672 58.7892Z" fill="url(#paint0_linear_2008_45)"/>
<path d="M560.492 40.1966C560.492 30.6529 560.507 21.1246 560.476 11.5809C560.476 10.3105 560.352 9.04009 560.213 7.78515C560.011 6.01894 559.02 4.88795 557.315 4.39217C556.571 4.17527 555.688 4.28371 555.208 3.50905C555.084 3.29215 555.099 2.76539 555.254 2.64145C556.277 1.82032 557.547 1.47949 558.787 1.40202C561.499 1.2316 564.133 0.813286 566.798 0.286523C568.332 -0.0078451 569.959 0.178073 571.556 0.240045C572.625 0.286525 573.307 0.968181 573.616 1.94424C573.864 2.68791 574.066 3.47809 574.112 4.25274C574.205 5.52317 574.159 6.79358 574.174 8.06401C574.19 13.1457 574.159 18.243 574.205 23.3247C574.221 25.3852 574.36 27.4458 574.453 29.5064C574.469 29.9712 575.12 30.3585 575.46 30.1416C576.127 29.7233 576.793 29.305 577.444 28.8402C581.054 26.2683 585.114 25.1064 589.53 25.0754C590.801 25.0599 592.072 25.0754 593.342 25.0909C598.192 25.1993 602.221 27.074 605.615 30.5444C609.845 34.8825 611.55 40.2276 612.015 46.0684C612.169 48.129 612.154 50.2051 612.015 52.2657C611.643 58.1375 609.551 63.3897 605.847 67.9601C604.964 69.0446 603.817 69.9742 602.64 70.7644C600.005 72.5306 597.387 74.3433 594.226 75.1179C593.621 75.2573 593.063 75.6292 592.506 75.939C591.498 76.4968 590.414 76.6517 589.298 76.7137C587.237 76.8066 585.161 76.8841 583.1 77.039C578.962 77.3334 574.841 76.7912 570.719 76.6207C569.944 76.5897 569.138 76.4038 568.41 76.1249C566.457 75.4123 564.49 74.8235 562.444 74.4362C561.142 74.1883 560.569 73.5376 560.476 72.1278C560.337 70.0672 560.244 68.0066 560.259 65.9461C560.321 57.3629 560.445 48.7797 560.538 40.1966C560.538 40.1966 560.523 40.1966 560.492 40.1966ZM574.469 37.6712C574.36 38.26 574.236 38.5698 574.236 38.8797C574.205 48.5629 574.19 58.2615 574.19 67.9446C574.19 68.4094 574.267 68.8897 574.36 69.3545C574.484 70.0207 574.887 70.532 575.46 70.8108C576.018 71.0897 576.623 71.3686 577.242 71.4616C579.768 71.8489 582.294 71.8644 584.82 71.2911C590.662 69.9432 594.226 66.1784 595.853 60.6009C597.139 56.1699 597.418 50.6234 596.922 45.96C596.596 42.9543 595.791 40.0571 594.489 37.2994C593.466 35.1458 591.715 33.736 589.577 33.0543C585.083 31.6444 580.775 32.0937 576.979 35.1149C575.956 35.9205 575.181 36.9276 574.469 37.6712Z" fill="url(#paint1_linear_2008_45)"/>
<path d="M665.432 53.2666C665.371 57.3292 665.34 61.3918 665.218 65.4545C665.172 67.3636 665.309 69.1964 666.137 70.9528C666.413 71.5484 666.842 72.0066 667.455 72.2204C668.482 72.5717 669.554 72.8314 670.596 73.1521C671.102 73.3201 671.316 74.3739 670.918 74.7405C670.581 75.0459 670.228 75.4278 669.815 75.5805C669.079 75.8249 668.298 76.0387 667.531 76.054C664.237 76.1151 660.942 76.1151 657.648 76.1303C656.33 76.1456 655.242 75.6416 654.2 74.8474C653.112 74.0074 652.346 72.4037 650.844 72.5106C649.679 72.6023 648.591 73.4728 647.457 73.9921C646.032 74.6336 644.653 75.4125 643.182 75.8554C641.696 76.2983 640.102 76.39 638.57 76.6649C635.765 77.1689 632.976 77.5049 630.249 76.3136C628.333 76.1761 626.694 75.3667 625.008 74.4503C622.127 72.8772 620.809 70.3266 619.829 67.4858C618.664 64.0952 619.108 60.6893 619.982 57.3139C620.135 56.7335 620.503 56.1684 620.901 55.695C622.725 53.5109 624.84 51.6935 627.491 50.5327C629.636 49.5858 631.72 48.4556 634.172 48.5625C635.949 47.8905 637.834 47.753 639.673 47.3864C641.374 47.0504 643.075 46.7908 644.806 46.8519C646.569 46.913 648.224 46.4243 649.863 45.8897C650.537 45.6759 650.982 45.2177 651.074 44.5915C651.365 42.4227 651.579 40.2539 651.334 38.0546C651.028 35.3666 649.143 32.8465 646.048 32.144C641.343 31.0749 636.685 31.3039 632.149 32.984C630.647 33.5338 629.452 34.5418 628.364 35.7026C627.828 36.2677 627.307 36.8481 626.77 37.3979C626.433 37.7339 625.452 37.7033 625.023 37.3673C623.506 36.2218 622.618 32.5869 623.537 30.9527C623.828 30.4334 624.242 29.8224 624.763 29.5933C626.893 28.6464 628.808 27.1344 631.245 26.9511C637.175 25.0267 643.305 24.9198 649.419 25.3016C653.173 25.5307 656.805 26.722 659.839 29.1505C661.678 30.6319 663.317 32.3883 664.114 34.6335C664.789 36.5426 665.172 38.5434 665.172 40.6052C665.172 44.8206 665.294 49.0512 665.371 53.2666C665.371 53.2666 665.401 53.2666 665.432 53.2666ZM651.089 57.4056C651.15 57.4056 651.212 57.4056 651.288 57.4056C651.196 55.5423 651.15 53.6637 650.997 51.8004C650.966 51.388 650.645 50.9298 650.093 50.884C649.633 50.8382 649.158 50.7771 648.683 50.8229C645.695 51.1131 642.906 52.1822 640.056 53.007C638.876 53.343 637.819 54.1219 636.761 54.7939C636.24 55.1146 635.735 55.5576 635.398 56.0616C633.314 59.1162 632.716 62.3388 634.432 65.7752C635.75 68.4174 637.911 69.6546 640.853 69.7157C642.477 69.7462 643.902 69.1658 645.404 68.7076C646.967 68.2189 648.224 67.3789 649.373 66.2792C650.415 65.2712 651.104 64.0646 651.104 62.5679C651.089 60.842 651.089 59.1162 651.089 57.4056Z" fill="url(#paint2_linear_2008_45)"/>
<path d="M485.967 25.2225C486.758 25.2225 487.564 25.2989 488.355 25.2072C491.999 24.81 495.364 25.8947 498.419 27.5447C502.358 29.6835 504.948 32.9987 505.119 37.6889C505.15 38.4681 505.057 39.2625 505.088 40.0417C505.165 42.2111 504.312 43.9374 502.885 45.5568C500.699 48.0165 497.923 49.4221 494.806 50.2318C491.735 51.0262 488.634 51.7137 485.532 52.4165C484.912 52.554 484.276 52.6456 483.64 52.6151C480.26 52.5081 477.034 53.5317 473.716 53.8373C473.111 53.8984 472.506 54.6011 472.537 55.1358C472.723 58.4663 473.405 61.6288 475.359 64.4398C476.46 66.0287 477.872 67.2204 479.562 68.1829C484.121 70.7648 488.929 71.0244 493.845 69.5731C496.558 68.7634 499.35 68.0148 501.738 66.3648C501.986 66.1968 502.312 66.0745 502.606 65.9981C503.258 65.8301 503.847 65.9676 504.39 66.3648C504.948 66.7926 505.165 67.3731 505.072 68.0148C504.839 69.6648 503.893 70.9481 502.591 71.88C500.001 73.7286 496.993 74.7675 494.046 75.9133C493.751 76.0202 493.426 76.0508 493.116 76.0966C490.588 76.4021 488.076 76.7383 485.548 76.9674C483.005 77.2119 480.446 77.2424 477.965 76.5396C476.29 76.066 474.475 76.2799 472.878 75.4091C471.917 74.8744 470.8 74.5994 469.885 74.0036C467.621 72.5675 465.279 71.1925 463.279 69.4356C461.247 67.6634 460.069 65.2037 459.092 62.6982C456.626 56.3122 456.673 49.7734 458.161 43.2652C459.123 39.0792 461.216 35.3515 464.659 32.5557C466.613 30.9516 468.536 29.2404 470.754 28.0488C473.53 26.5516 476.585 25.5586 479.81 25.3752C481.873 25.253 483.951 25.2377 486.013 25.1766C485.967 25.1766 485.967 25.1919 485.967 25.2225ZM472.32 46.6416C472.335 46.8554 472.382 47.6346 472.459 48.3985C472.506 48.9637 473.142 49.529 473.778 49.4984C474.879 49.4679 475.98 49.4373 477.081 49.3304C478.027 49.2387 478.957 48.8568 479.872 48.8874C482.726 48.9637 484.99 47.4818 487.378 46.3054C487.797 46.1068 488.138 45.7554 488.479 45.4193C491.565 42.3333 492.092 36.4667 489.626 32.846C488.991 31.914 488.169 31.1654 486.959 31.089C485.222 30.9821 483.501 30.921 481.764 30.8904C480.105 30.8752 478.725 31.5932 477.422 32.5251C476.259 33.3806 475.313 34.4348 474.693 35.7029C473.095 39.0028 472.304 42.4555 472.32 46.6416Z" fill="url(#paint3_linear_2008_45)"/>
<path d="M677.119 5.21837C675.909 4.77126 674.728 4.38584 673.579 3.89248C673.38 3.79998 673.288 3.38369 673.18 3.10617C673.042 2.75157 673.165 2.45865 673.518 2.30448C674.223 1.98071 674.912 1.51814 675.648 1.3948C678.437 0.947693 681.227 0.531434 684.032 0.253919C685.733 0.0843259 687.48 0.115165 689.197 0.161417C690.301 0.192252 691.343 1.10188 691.573 2.13486C692.017 4.13914 692.308 6.15885 692.293 8.2248C692.247 16.2728 692.262 24.3361 692.232 32.3841C692.201 41.2183 692.109 50.068 692.14 58.9022C692.155 62.0628 692.37 65.208 692.569 68.3686C692.692 70.4191 693.55 72.0071 695.757 72.5005C695.91 72.5313 696.048 72.6084 696.201 72.6701C696.952 73.0247 697.274 73.7647 697.06 74.6435C696.876 75.4452 696.217 76.0928 695.435 76.0928C690.576 76.1236 685.702 76.139 680.844 76.1082C679.771 76.1082 678.698 75.0598 678.621 73.996C678.483 72.1151 678.392 70.2187 678.407 68.3223C678.453 50.3301 678.529 32.3224 678.575 14.3301C678.575 12.4338 678.499 10.5374 678.407 8.65649C678.33 7.36142 677.962 6.15884 677.119 5.21837Z" fill="url(#paint4_linear_2008_45)"/>
<path d="M530.666 31.7699C531.992 31.6472 532.732 30.7728 533.518 30.0365C535.754 27.935 538.39 26.6312 541.304 25.7415C542.691 25.312 544.063 25.0972 545.481 25.1279C547.208 25.1586 548.95 25.2046 550.677 25.3427C551.71 25.4194 552.897 26.5238 552.974 27.4442C553.298 30.7575 553.174 34.0248 551.879 37.1694C551.448 38.1972 550.214 38.7801 549.151 38.4273C548.703 38.2739 548.256 38.1051 547.84 37.9057C544.741 36.4025 541.442 36.3258 538.112 36.5712C535.522 36.7553 533.688 38.1818 532.362 40.2373C531.237 41.9707 530.697 43.8728 530.743 46.0357C530.898 54.9939 530.898 63.9369 530.944 72.8952C530.944 73.3707 530.913 73.8309 530.867 74.3064C530.774 75.3035 529.988 76.1165 529.032 76.1165C525.718 76.1318 522.403 76.1318 519.089 76.0705C517.67 76.0398 516.776 75.0734 516.684 73.6468C516.607 72.389 516.622 71.1311 516.622 69.8733C516.607 59.3504 516.607 48.8121 516.591 38.2892C516.591 36.7246 516.591 35.1446 516.483 33.58C516.422 32.6443 516.19 31.7239 515.928 30.8189C515.697 30.0366 515.08 29.4997 514.294 29.2389C513.4 28.9475 512.475 28.794 511.596 28.5026C511.38 28.4259 511.242 28.0117 511.149 27.7203C511.026 27.3061 511.396 26.7079 511.766 26.6005C512.059 26.5085 512.352 26.3397 512.66 26.3397C516.283 26.217 519.921 26.1097 523.544 26.033C524.176 26.0176 524.808 26.125 525.425 26.2323C526.72 26.4471 527.799 27.076 528.508 28.2111C529.233 29.423 529.957 30.6195 530.666 31.7699Z" fill="url(#paint5_linear_2008_45)"/>
<defs>
<linearGradient id="paint0_linear_2008_45" x1="415.616" y1="89.0434" x2="415.616" y2="24.482" gradientUnits="userSpaceOnUse">
<stop stop-color="#009149"/>
<stop offset="0.1418" stop-color="#009349"/>
<stop offset="0.3046" stop-color="#009748"/>
<stop offset="0.4778" stop-color="#3F9F47"/>
<stop offset="0.6583" stop-color="#68AB44"/>
<stop offset="0.8423" stop-color="#92BD40"/>
<stop offset="1" stop-color="#BBD238"/>
</linearGradient>
<linearGradient id="paint1_linear_2008_45" x1="583.639" y1="93.8048" x2="583.639" y2="33.0386" gradientUnits="userSpaceOnUse">
<stop stop-color="#009149"/>
<stop offset="0.1213" stop-color="#009448"/>
<stop offset="0.3091" stop-color="#299B47"/>
<stop offset="0.5396" stop-color="#5FA845"/>
<stop offset="0.8017" stop-color="#91BC40"/>
<stop offset="1" stop-color="#BBD238"/>
</linearGradient>
<linearGradient id="paint2_linear_2008_45" x1="645.121" y1="89.0208" x2="645.121" y2="43.2922" gradientUnits="userSpaceOnUse">
<stop stop-color="#009149"/>
<stop offset="0.1213" stop-color="#009448"/>
<stop offset="0.3091" stop-color="#299B47"/>
<stop offset="0.5396" stop-color="#5FA845"/>
<stop offset="0.8017" stop-color="#91BC40"/>
<stop offset="1" stop-color="#BBD238"/>
</linearGradient>
<linearGradient id="paint3_linear_2008_45" x1="481.101" y1="103.036" x2="481.101" y2="37.2468" gradientUnits="userSpaceOnUse">
<stop stop-color="#009149"/>
<stop offset="0.1418" stop-color="#009349"/>
<stop offset="0.3046" stop-color="#009748"/>
<stop offset="0.4778" stop-color="#3F9F47"/>
<stop offset="0.6583" stop-color="#68AB44"/>
<stop offset="0.8423" stop-color="#92BD40"/>
<stop offset="1" stop-color="#BBD238"/>
</linearGradient>
<linearGradient id="paint4_linear_2008_45" x1="682.589" y1="86.8485" x2="685.73" y2="27.5247" gradientUnits="userSpaceOnUse">
<stop stop-color="#009149"/>
<stop offset="0.1213" stop-color="#009448"/>
<stop offset="0.3091" stop-color="#299B47"/>
<stop offset="0.5396" stop-color="#5FA845"/>
<stop offset="0.8017" stop-color="#91BC40"/>
<stop offset="1" stop-color="#BBD238"/>
</linearGradient>
<linearGradient id="paint5_linear_2008_45" x1="532.125" y1="85.3486" x2="532.125" y2="38.517" gradientUnits="userSpaceOnUse">
<stop stop-color="#009149"/>
<stop offset="0.1213" stop-color="#009448"/>
<stop offset="0.3091" stop-color="#299B47"/>
<stop offset="0.5396" stop-color="#5FA845"/>
<stop offset="0.8017" stop-color="#91BC40"/>
<stop offset="1" stop-color="#BBD238"/>
</linearGradient>
</defs>
</svg>
