<svg width="309" height="282" viewBox="0 0 309 282" fill="none" xmlns="http://www.w3.org/2000/svg">
<path d="M251.678 182.658C251.408 182.788 251.078 182.858 250.868 183.058C249.108 184.628 247.298 186.138 245.708 187.898C244.128 189.658 242.538 191.388 240.968 193.158C236.548 198.148 231.868 202.898 227.018 207.488C224.408 209.958 221.788 212.398 218.988 214.658C215.628 217.378 212.098 219.798 208.288 221.838C207.028 222.518 205.818 223.308 204.548 223.958C202.448 225.028 200.258 225.888 198.058 226.728C195.958 227.528 193.808 228.188 191.688 228.938C191.018 229.178 190.308 229.388 189.598 229.438C188.048 229.538 186.558 229.848 185.058 230.188C183.558 230.528 182.028 230.728 180.478 230.698C178.228 230.648 175.978 230.638 173.718 230.598C173.478 230.598 173.338 230.408 173.408 230.168C173.458 229.998 173.588 229.748 173.718 229.718C177.408 228.948 177.968 228.468 182.088 226.838C187.828 224.558 193.138 221.458 198.068 217.758C201.348 215.298 204.398 212.548 207.388 209.738C210.758 206.568 213.748 203.048 216.648 199.458C220.578 194.588 224.628 189.818 228.858 185.208C231.218 182.638 233.678 180.178 236.608 178.208C238.218 177.118 239.698 175.828 241.278 174.688C244.668 172.248 248.538 170.898 252.548 169.968C254.438 169.538 256.408 169.278 258.338 169.308C262.658 169.368 266.918 169.918 270.908 171.768C271.368 171.978 271.648 172.508 271.508 173.038C270.998 174.918 270.488 176.798 269.918 178.658C269.168 181.098 268.078 183.438 267.518 185.948C267.368 186.638 266.948 187.258 266.678 187.928C264.718 192.778 262.578 197.528 260.108 202.148C257.398 207.218 254.468 212.148 251.288 216.938C250.098 218.728 248.848 220.488 247.548 222.198C245.498 224.888 243.568 227.678 241.338 230.228C240.598 231.078 239.878 231.938 239.128 232.788C238.588 233.408 237.958 233.948 237.478 234.608C234.898 238.098 231.628 240.918 228.458 243.828C224.908 247.078 221.248 250.208 217.378 253.088C213.518 255.958 209.528 258.648 205.428 261.148C190.418 270.278 173.148 276.688 155.698 279.018C151.338 279.598 146.978 280.178 142.598 280.558C133.448 281.338 124.238 281.468 115.058 280.948C105.698 280.408 96.3882 279.198 87.2082 277.308C78.7082 275.558 69.8582 273.798 62.6582 268.718C61.7482 268.078 60.8882 267.388 60.0782 266.638C58.7582 265.418 57.8782 263.878 57.5282 262.168C56.9582 259.328 57.5282 256.668 59.4482 254.388C60.4882 253.158 64.4482 256.168 65.6382 256.728C68.1182 257.898 70.6682 258.918 73.2682 259.778C79.0182 261.678 85.0082 262.728 90.9982 263.518C93.9982 263.918 97.0082 264.248 100.018 264.578C101.298 264.718 102.548 264.968 103.808 265.108C105.158 265.258 106.508 264.818 107.868 265.028C106.468 263.838 102.938 264.068 101.148 263.778C98.3682 263.338 95.5982 262.828 92.8482 262.248C89.4982 261.538 86.1782 260.718 82.8882 259.778C69.2382 255.888 57.2782 249.468 48.6282 237.938C46.7882 235.488 45.2882 232.778 43.7482 230.118C40.8082 225.048 38.5982 219.648 36.8982 214.038C36.4582 212.568 36.0782 211.078 35.5482 209.638C34.9082 207.898 34.5882 206.088 34.1682 204.298C33.7382 202.498 33.3282 200.718 33.0882 198.888C32.9082 197.568 32.7182 196.238 32.3682 194.968C31.9282 193.368 31.9282 191.728 31.7382 190.108C31.7282 190.028 31.8082 189.858 31.8482 189.858C32.0282 189.848 32.3182 189.808 32.3982 189.908C33.6682 191.558 35.3182 192.778 37.0082 193.938C37.4282 194.228 37.8482 194.528 38.2982 194.768C40.6382 196.028 43.0282 197.168 45.4282 198.308C45.8782 198.528 46.3982 198.618 46.8882 198.768C47.4782 198.948 48.0982 199.038 48.6382 199.308C49.3782 199.688 50.1382 199.938 50.9582 200.078C51.4582 200.158 51.9382 200.368 52.4082 200.578C53.1582 200.918 53.9182 201.198 54.7582 201.258C55.1682 201.288 55.5782 201.348 55.9682 201.488C57.6182 202.058 59.3082 202.408 61.0082 202.768C63.3182 203.248 65.6082 203.798 67.9782 203.918C68.0782 203.928 68.1882 203.928 68.2782 203.958C72.5382 205.168 77.0382 204.928 81.3182 206.008C81.5182 206.058 81.7282 206.078 81.9282 206.088C85.5082 206.348 89.0882 206.598 92.6682 206.848C93.4882 206.908 94.3082 206.918 95.1182 207.028C98.5982 207.508 102.078 207.278 105.568 207.158C104.658 206.888 103.728 206.938 102.798 206.888C100.848 206.768 98.9082 206.588 96.9682 206.488C92.2482 206.258 87.5882 205.438 82.8982 204.928C82.2882 204.858 81.6782 204.768 81.0782 204.638C77.5682 203.928 74.0282 203.358 70.5182 202.588C66.3082 201.668 62.1482 200.628 58.0482 199.328C53.6482 197.938 49.3082 196.378 45.0882 194.518C42.4382 193.348 40.0382 191.778 37.7382 190.068C36.0582 188.818 34.8982 187.098 34.0082 185.238C33.2682 183.698 33.2482 182.118 34.0982 180.508C35.1882 178.458 36.7182 176.828 38.5482 175.478C41.3682 173.398 44.4582 171.798 47.7182 170.518C47.9982 170.408 48.3082 170.358 48.5982 170.258C52.2982 168.978 51.4082 168.518 53.8282 172.078C54.1182 172.498 54.3882 172.928 54.6582 173.368C54.7782 173.568 54.5982 174.088 54.3682 174.148C52.7482 174.538 51.3282 175.348 49.9182 176.188C48.7582 176.878 47.7982 177.808 47.0082 178.888C46.3682 179.758 46.1882 180.708 46.5182 181.798C46.8682 182.928 47.4682 183.858 48.4282 184.508C49.6182 185.318 50.7982 186.148 52.0782 186.778C53.9082 187.678 55.7682 188.508 57.7582 189.078C60.3182 189.808 62.8682 190.538 65.4882 191.068C68.5982 191.698 71.6782 192.458 74.7982 193.058C79.4282 193.948 84.0882 194.738 88.8182 194.898C89.5382 194.918 90.2482 195.008 90.9682 195.058C95.0582 195.338 99.1482 195.778 103.248 195.838C108.678 195.928 114.118 196.128 119.558 195.788C122.728 195.588 125.918 195.518 129.078 195.238C132.648 194.918 136.258 194.958 139.788 194.218C140.888 193.988 142.038 193.998 143.148 193.848C150.988 192.788 158.688 191.108 166.278 188.898C169.728 187.888 173.058 186.548 176.298 185.018C178.538 183.958 180.858 183.188 183.198 182.438C183.488 182.348 183.788 182.238 184.088 182.208C186.948 181.898 189.818 181.708 192.678 182.128C194.298 182.368 195.868 182.918 197.298 183.748C199.248 184.878 200.388 186.698 201.198 188.748C201.538 191.328 201.508 193.858 200.288 196.258C199.348 198.098 198.128 199.748 196.748 201.268C193.918 204.388 190.838 207.228 187.318 209.598C183.058 212.458 178.698 215.138 174.078 217.368C171.598 218.558 169.078 219.678 166.478 220.648C163.418 221.798 160.248 222.658 157.228 223.928C154.728 224.458 152.378 225.538 149.798 225.828C147.468 226.088 145.188 226.728 142.888 227.218C142.838 227.228 142.788 227.358 142.778 227.438C142.768 227.528 142.778 227.688 142.828 227.718C143.708 228.238 144.558 228.818 145.488 229.228C148.758 230.698 152.118 231.948 155.528 233.028C158.538 233.978 161.598 234.898 164.788 235.158C164.888 235.168 164.998 235.158 165.098 235.188C167.898 236.038 170.788 235.778 173.658 235.828C175.808 235.868 177.968 235.818 180.128 235.808C181.458 235.798 182.748 235.758 184.058 235.338C185.298 234.938 186.708 235.098 187.978 234.668C190.368 234.588 192.538 233.538 194.868 233.128C195.958 232.938 197.018 232.448 198.058 232.018C200.798 230.878 203.608 229.938 206.268 228.568C209.188 227.058 211.968 225.328 214.698 223.508C219.238 220.478 223.378 216.958 227.198 213.068C230.718 209.478 234.108 205.768 237.158 201.758C239.578 198.578 241.898 195.318 244.308 192.128C245.608 190.418 247.008 188.768 248.398 187.128C249.328 186.028 250.328 184.998 251.278 183.918C251.538 183.618 251.708 183.238 251.918 182.898C252.308 182.788 252.578 182.598 252.388 182.138C253.068 181.928 253.068 181.928 252.698 181.228C253.288 181.538 253.808 181.518 254.298 180.998C254.498 180.798 254.808 180.698 255.058 180.548C255.168 180.218 255.278 179.888 255.388 179.578C255.548 179.468 255.578 179.478 255.498 179.638C255.488 179.588 255.478 179.538 255.468 179.498C255.138 179.828 254.958 180.198 255.128 180.668C254.658 180.478 254.218 180.508 253.788 180.788C253.468 180.988 253.118 181.138 252.798 181.318C252.688 181.618 252.568 181.908 252.448 182.198C251.988 182.078 251.758 182.268 251.678 182.658Z" fill="url(#paint0_linear_2009_48)"/>
<path d="M113.177 192.568C112.067 192.468 110.927 192.718 109.847 192.188C109.507 192.018 109.047 192.078 108.637 192.088C100.777 192.248 93.0075 191.138 85.2675 189.938C82.1575 189.458 79.0475 188.968 75.9375 188.488C72.5375 187.958 70.9175 184.828 69.2975 182.038C67.6575 179.198 65.9675 176.388 64.2675 173.588C62.4075 170.518 60.5075 167.478 58.6075 164.428C54.3875 157.638 50.0275 150.928 45.9975 144.018C43.7775 140.208 41.4275 136.478 39.1175 132.718C38.8475 132.278 38.5375 131.868 38.2375 131.458C37.9175 131.028 37.4775 130.788 36.9375 130.738C36.8375 130.728 36.7275 130.728 36.6275 130.738C34.5175 131.068 32.8375 130.138 31.2575 128.918C29.6675 127.698 28.5575 126.128 27.9475 124.208C27.4975 122.808 27.4575 121.398 27.8975 119.968C28.5675 117.778 29.5775 115.788 31.2175 114.158C32.3775 112.998 33.5475 111.858 34.8875 110.888C37.6875 108.868 40.7375 107.538 44.2075 107.208C45.3575 107.098 46.4475 107.478 47.5675 107.508C48.7375 107.538 49.7775 107.928 50.7575 108.518C54.0275 110.498 55.7075 113.328 55.3675 117.218C55.3475 117.418 55.3775 117.648 55.2975 117.828C54.7075 119.258 55.2475 120.368 56.1775 121.468C61.2075 127.418 65.9675 133.588 71.0675 139.488C72.6075 141.268 74.0675 143.128 75.5575 144.958C75.7475 145.198 75.9275 145.458 76.1275 145.678C78.8275 148.628 81.3475 151.728 83.9275 154.788C86.9675 158.398 89.9575 162.038 92.9875 165.658C95.3575 168.488 97.7575 171.288 100.137 174.118C102.507 176.948 104.858 179.798 107.238 182.618C109.488 185.288 111.748 187.928 114.018 190.578C114.418 191.038 114.877 191.458 115.287 191.898C115.347 191.958 115.357 192.078 115.357 192.168C115.357 192.428 115.227 192.558 114.997 192.558C114.397 192.568 113.787 192.568 113.177 192.568Z" fill="url(#paint1_linear_2009_48)"/>
<path d="M264.638 124.198C264.148 124.308 263.588 124.308 263.168 124.538C258.138 127.298 253.038 129.928 248.198 133.018C244.488 135.388 240.748 137.708 237.088 140.158C234.028 142.208 231.018 144.328 228.158 146.658C227.678 147.048 227.228 147.468 226.578 147.528C226.478 147.538 226.318 147.558 226.278 147.508C226.168 147.348 225.998 147.128 226.038 146.988C227.008 143.548 227.958 140.098 229.158 136.718C230.098 134.098 231.178 131.578 232.518 129.148C235.258 124.178 238.558 119.628 242.728 115.748C245.738 112.948 248.958 110.428 252.508 108.328C255.868 106.348 259.398 104.708 262.918 103.058C264.118 102.498 265.378 102.018 266.658 101.698C268.848 101.158 270.938 100.248 273.178 99.9281C275.008 99.6681 276.738 98.9481 278.588 98.8181C279.918 98.7281 281.238 98.5481 282.558 98.4081C282.868 98.3781 283.188 98.4281 283.478 98.3381C285.878 97.6081 288.368 97.9081 290.808 97.6881C293.268 97.4681 295.728 97.5781 298.188 97.7281C298.798 97.7681 299.418 97.8281 300.028 97.7981C302.608 97.6981 305.108 98.4081 307.668 98.5281C307.758 98.5281 307.878 98.5881 307.938 98.6581C308.058 98.8081 308.258 99.0281 308.218 99.1481C307.958 100.028 307.668 100.898 307.338 101.758C306.458 104.058 305.488 106.308 304.388 108.518C303.838 109.618 303.238 110.698 302.758 111.828C301.788 114.108 300.438 116.158 299.018 118.168C296.888 121.178 294.898 124.298 292.338 126.968C290.078 129.338 287.768 131.668 285.478 134.008C285.118 134.368 284.718 134.688 284.308 134.998C279.988 138.298 275.538 141.368 270.518 143.558C269.208 144.128 267.948 144.828 266.648 145.418C265.438 145.968 264.218 146.508 262.968 146.938C261.128 147.568 259.248 148.078 257.408 148.688C255.258 149.398 253.088 149.928 250.818 150.088C250.218 150.128 249.608 150.328 249.028 150.508C247.348 151.018 245.628 151.268 243.868 151.258C241.608 151.238 239.358 151.418 237.128 151.788C235.188 152.108 233.248 152.138 231.308 151.798C231.158 151.768 230.988 151.568 230.928 151.408C230.868 151.238 230.928 151.018 230.968 150.828C230.988 150.738 231.078 150.658 231.158 150.598C232.698 149.418 234.258 148.258 235.778 147.048C238.498 144.878 241.198 142.678 243.908 140.488C247.818 137.338 251.638 134.078 255.728 131.158C258.478 129.198 261.228 127.228 263.968 125.248C264.278 125.018 264.488 124.648 264.738 124.348C265.018 124.278 265.318 124.248 265.568 124.108C265.818 123.968 266.108 123.768 266.188 123.518C266.268 123.288 266.118 122.968 266.078 122.678C266.278 122.708 266.488 122.698 266.678 122.758C267.128 122.908 267.458 122.778 267.688 122.378C267.708 122.338 267.728 122.298 267.758 122.248C267.778 122.288 267.808 122.328 267.828 122.378C267.798 122.348 267.768 122.328 267.738 122.298C267.198 122.488 266.698 122.808 266.088 122.668C265.758 122.968 265.408 123.248 265.088 123.558C264.938 123.768 264.798 123.998 264.638 124.198Z" fill="url(#paint2_linear_2009_48)"/>
<path d="M111.018 85.9181C111.088 85.9981 111.188 86.0581 111.218 86.1481C113.018 92.0281 115.148 97.7881 117.398 103.508C118.898 107.318 120.568 111.068 122.168 114.838C122.878 116.528 123.608 118.218 124.298 119.908C124.348 120.038 124.178 120.268 124.078 120.428C124.048 120.478 123.888 120.458 123.798 120.438C123.608 120.378 123.398 120.338 123.238 120.218C121.968 119.348 120.698 118.478 119.458 117.578C117.058 115.828 114.658 114.068 112.278 112.288C111.208 111.488 110.228 110.598 109.318 109.618C107.148 107.298 104.908 105.028 102.728 102.718C102.028 101.978 101.358 101.188 100.758 100.358C98.2382 96.8581 95.8882 93.2581 94.1882 89.2781C93.7482 88.2381 93.2782 87.2181 92.8082 86.1881C90.0882 80.1481 88.4282 73.8381 87.9982 67.2081C87.8982 65.6681 87.7382 64.1381 87.5882 62.6081C87.3282 60.0481 87.2182 57.4581 87.5182 54.9281C87.8282 52.3781 87.9482 49.8181 88.2682 47.2781C88.9382 42.0881 89.9782 36.9681 91.6282 31.9781C91.6882 31.7881 91.7482 31.5881 91.8182 31.3881C92.0682 30.7181 92.7282 30.4581 93.2882 30.8381C94.3982 31.5781 95.4982 32.3381 96.5782 33.0981C101.798 36.7781 106.518 41.0281 110.688 45.8781C114.108 49.8481 117.228 54.0581 120.018 58.4781C122.378 62.1981 124.468 66.0981 126.038 70.2281C127.278 73.4781 128.268 76.8181 129.268 80.1481C130.248 83.4081 130.638 86.7481 131.178 90.0881C131.698 93.2481 131.818 96.4081 131.818 99.5881C131.818 101.228 131.768 102.868 131.828 104.508C131.958 108.018 131.478 111.468 130.948 114.908C130.688 116.628 130.408 118.348 130.108 120.058C130.088 120.188 129.808 120.288 129.638 120.368C129.578 120.398 129.418 120.318 129.368 120.248C129.188 120.008 129.028 119.748 128.878 119.488C128.428 118.688 127.988 117.868 127.528 117.068C124.688 112.078 121.898 107.058 119.458 101.858C118.718 100.278 117.898 98.7381 117.108 97.1881C115.398 93.8081 113.738 90.3981 112.358 86.8681C112.248 86.5881 112.098 86.2681 111.868 86.0981C111.658 85.9481 111.318 85.9681 111.038 85.9081C111.058 85.7581 111.058 85.5981 111.088 85.4481C111.128 85.2481 111.148 85.2381 111.118 85.4381C111.108 85.6181 111.058 85.7681 111.018 85.9181Z" fill="url(#paint3_linear_2009_48)"/>
<path d="M232.698 86.748C232.118 86.688 231.748 87.078 231.378 87.408C229.178 89.408 226.958 91.388 224.788 93.428C223.138 94.968 221.528 96.548 219.948 98.158C218.508 99.618 217.128 101.128 215.728 102.638C214.748 103.688 213.858 104.828 212.828 105.818C210.388 108.178 208.298 110.838 206.198 113.488C205.818 113.968 205.418 114.438 205.028 114.908C204.798 115.188 204.398 115.278 204.238 115.088C204.118 114.938 203.938 114.778 203.928 114.608C203.418 109.758 203.918 104.978 205.208 100.308C206.078 97.158 207.048 94.018 208.538 91.068C211.278 85.638 214.448 80.518 218.638 76.078C222.668 71.818 227.028 67.928 232.028 64.828C233.768 63.748 235.508 62.648 237.328 61.718C240.518 60.078 243.728 58.468 247.078 57.178C250.808 55.748 254.588 54.498 258.478 53.508C260.858 52.898 263.288 52.478 265.658 51.838C266.868 51.508 268.098 51.588 269.318 51.708C269.848 51.758 270.248 52.248 270.158 52.778C269.898 54.288 269.638 55.808 269.328 57.308C268.928 59.218 268.468 61.108 268.038 63.008C266.258 70.878 263.048 78.138 258.838 85.018C256.258 89.238 253.358 93.178 249.908 96.728C246.968 99.748 243.778 102.478 240.278 104.818C236.028 107.668 231.528 110.108 226.938 112.358C225.248 112.788 223.738 113.688 222.038 114.118C220.468 114.518 218.918 115.108 217.378 115.638C216.108 116.078 214.838 116.428 213.528 116.658C212.518 116.828 211.528 117.068 210.568 117.438C210.328 117.528 209.978 117.388 209.698 117.298C209.488 117.228 209.468 116.778 209.638 116.488C209.688 116.398 209.718 116.298 209.778 116.218C212.898 111.768 215.788 107.158 219.178 102.918C221.738 99.718 224.378 96.568 227.038 93.458C228.708 91.518 230.498 89.678 232.228 87.788C232.508 87.478 232.728 87.148 232.628 86.698C233.218 86.568 233.218 86.568 233.128 86.018C233.668 85.908 233.668 85.908 233.568 85.288C234.248 85.258 234.248 85.258 234.288 84.548C234.598 84.448 234.908 84.348 235.218 84.248C235.218 84.248 235.298 84.308 235.288 84.308C234.968 84.408 234.648 84.518 234.338 84.638C234.098 84.868 233.858 85.088 233.608 85.308C233.468 85.568 233.328 85.828 233.188 86.078C232.868 86.168 232.638 86.338 232.698 86.748Z" fill="url(#paint4_linear_2009_48)"/>
<path d="M195.988 61.3181C195.798 61.3581 195.568 61.3381 195.418 61.4381C195.258 61.5381 195.138 61.7281 195.048 61.8981C191.068 69.7581 187.068 77.5981 183.128 85.4681C180.838 90.0381 178.288 94.4981 175.458 98.7781C175.378 98.9081 175.118 98.9381 174.928 98.9681C174.878 98.9781 174.768 98.8381 174.728 98.7481C174.648 98.5581 174.578 98.3681 174.538 98.1681C174.438 97.6681 174.308 97.1681 174.258 96.6581C174.128 95.1281 173.868 93.6181 173.648 92.0981C173.268 89.5681 173.138 86.9981 173.028 84.4381C172.928 82.0881 172.918 79.7181 173.368 77.3881C173.428 77.0881 173.438 76.7781 173.448 76.4681C173.568 72.4581 174.388 68.5581 175.158 64.6381C175.968 60.4781 177.538 56.6081 179.068 52.7081C180.228 49.7481 181.658 46.9081 183.298 44.1881C183.718 43.4881 184.138 42.7781 184.618 42.1081C186.988 38.7681 189.218 35.3181 191.848 32.1581C192.698 31.1381 193.528 30.0881 194.448 29.1281C197.998 25.4281 201.568 21.7581 205.538 18.4781C207.448 16.9081 209.498 15.5681 211.518 14.1681C211.848 13.9381 212.458 14.0581 212.588 14.3681C214.328 18.6381 216.048 22.9181 216.638 27.5381C216.818 28.9581 217.118 30.3681 217.338 31.7781C217.938 35.5481 217.888 39.3481 217.768 43.1381C217.678 45.9981 217.468 48.8581 216.758 51.6581C216.498 55.1781 215.298 58.4581 214.188 61.7481C213.728 63.1081 213.228 64.4581 212.618 65.7481C211.118 68.8881 209.658 72.0481 207.798 75.0081C206.048 77.7981 204.078 80.4181 201.838 82.8181C198.478 86.4181 194.958 89.8481 191.018 92.8381C188.238 94.9481 185.288 96.7781 182.268 98.5081C182.018 98.6481 181.668 98.6681 181.378 98.6481C181.258 98.6381 181.038 98.3181 181.068 98.2181C181.328 97.5581 181.638 96.9281 181.928 96.2781C182.998 93.9481 184.088 91.6381 185.138 89.2981C185.808 87.8081 186.438 86.2881 187.068 84.7781C188.018 82.5081 188.898 80.2181 189.898 77.9781C191.268 74.8881 192.358 71.6881 193.418 68.4881C193.968 66.8381 194.478 65.1681 195.048 63.5281C195.318 62.7581 195.688 62.0281 196.008 61.2781C195.998 61.0381 195.988 60.8081 195.988 60.5881C195.978 60.8281 195.988 61.0781 195.988 61.3181Z" fill="url(#paint5_linear_2009_48)"/>
<path d="M150.498 46.1281C149.878 46.6181 149.828 47.2381 149.758 47.8281C149.548 49.7681 149.338 51.6981 149.178 53.6381C148.658 59.9781 148.698 66.3381 148.878 72.6881C148.938 74.9381 148.998 77.1981 149.088 79.4481C149.118 80.1581 149.258 80.8681 149.298 81.5781C149.308 81.7381 149.128 81.9181 149.008 82.0681C148.848 82.2681 148.418 82.1481 148.218 81.8681C146.288 79.0981 144.358 76.3281 142.418 73.5581C140.938 71.4581 139.708 69.2081 138.558 66.9181C137.218 64.2481 136.428 61.3781 135.868 58.4481C135.518 56.6381 135.168 54.8281 134.928 52.9981C134.698 51.2781 134.568 49.5281 134.488 47.7981C134.318 43.8981 134.418 40.0181 135.138 36.1581C135.628 33.5381 135.908 30.8881 136.698 28.3281C137.638 25.2881 138.738 22.3181 140.058 19.4181C142.178 14.7481 144.448 10.1581 147.208 5.82811C148.418 3.92811 149.698 2.07811 150.958 0.208109C151.108 -0.0118911 151.608 -0.0718908 151.778 0.0981092C151.848 0.168109 151.948 0.218109 152.008 0.298109C156.768 6.14811 160.578 12.5381 163.248 19.6081C164.618 23.2581 165.928 26.9181 166.808 30.7181C167.418 33.3181 167.928 35.9281 167.928 38.6081C167.928 39.5281 168.008 40.4581 168.148 41.3581C168.478 43.5081 168.408 45.6381 168.108 47.7881C167.868 49.5081 167.748 51.2481 167.578 52.9781C167.458 54.2081 167.138 55.3881 166.838 56.5881C165.718 61.0781 164.148 65.3981 162.118 69.5581C161.088 71.6781 160.158 73.8481 158.878 75.8281C157.708 77.6281 156.508 79.4081 155.318 81.1981C155.258 81.2781 155.188 81.3481 155.118 81.4281C154.898 81.6881 154.498 81.8081 154.308 81.6481C154.168 81.5281 153.968 81.3881 153.948 81.2281C153.488 78.4981 152.838 75.7881 152.648 73.0381C152.378 69.0481 151.808 65.0981 151.538 61.1081C151.218 56.5081 150.958 51.9081 150.658 47.3081C150.608 46.9481 150.548 46.5681 150.498 46.1281Z" fill="url(#paint6_linear_2009_48)"/>
<path d="M157.688 158.508C157.378 157.128 157.068 155.828 156.808 154.528C156.628 153.628 156.438 152.708 156.388 151.798C156.218 148.108 155.538 144.468 155.218 140.798C155.138 139.878 155.068 138.958 155.008 138.038C154.738 133.428 154.468 128.828 154.188 124.218C154.178 124.058 154.048 123.898 153.948 123.758C153.838 123.608 153.458 124.038 153.398 124.388C153.358 124.588 153.308 124.788 153.288 124.988C153.178 126.318 153.008 127.628 152.698 128.928C152.468 129.908 152.478 130.968 152.478 131.988C152.458 137.418 152.438 142.858 152.478 148.288C152.488 150.438 152.608 152.588 153.038 154.708C153.078 154.908 153.098 155.138 153.038 155.318C152.978 155.488 152.798 155.658 152.638 155.728C152.468 155.788 152.248 155.738 152.058 155.708C151.968 155.688 151.868 155.608 151.818 155.528C149.748 152.358 147.368 149.418 145.458 146.128C143.648 143.018 142.038 139.838 141.058 136.358C140.728 135.178 140.378 133.998 140.038 132.818C140.008 132.718 139.968 132.628 139.948 132.528C138.928 127.378 138.308 122.218 139.068 116.958C139.988 110.598 141.928 104.608 144.998 98.9681C146.968 95.3581 149.118 91.8881 151.688 88.6681C152.328 87.8681 152.918 87.0381 153.558 86.2481C153.648 86.1281 153.948 86.1081 154.118 86.1481C154.298 86.1981 154.458 86.3581 154.598 86.5081C159.058 91.1081 162.718 96.2881 165.418 102.098C167.238 105.998 168.578 110.088 169.378 114.348C169.928 117.288 170.238 120.228 170.308 123.198C170.358 125.358 170.158 127.498 169.888 129.638C169.208 134.968 167.668 140.058 165.578 144.968C163.888 148.928 161.848 152.728 159.618 156.408C159.248 157.018 158.898 157.648 158.478 158.228C158.348 158.408 157.978 158.408 157.688 158.508Z" fill="url(#paint7_linear_2009_48)"/>
<path d="M197.598 147.808C196.428 148.668 195.548 149.658 194.628 150.578C192.308 152.888 189.998 155.218 187.728 157.568C186.308 159.038 184.928 160.558 183.558 162.078C181.908 163.898 180.278 165.738 178.658 167.588C176.908 169.588 175.018 171.478 173.578 173.748C173.498 173.878 173.208 173.958 173.058 173.918C172.898 173.878 172.678 173.648 172.678 173.508C172.628 171.368 172.278 169.238 172.678 167.078C172.918 165.778 172.908 164.418 172.908 163.088C172.918 161.738 173.128 160.438 173.428 159.138C174.638 153.888 176.818 149.088 179.898 144.658C181.908 141.768 184.228 139.208 186.978 137.018C188.098 136.128 189.218 135.228 190.348 134.348C193.368 131.998 196.808 130.378 200.318 128.938C202.488 128.048 204.678 127.158 206.998 126.668C209.228 125.568 211.728 125.388 214.078 124.668C214.178 124.638 214.268 124.598 214.368 124.578C217.298 124.128 220.218 123.538 223.208 123.638C223.798 123.658 224.088 124.038 223.928 124.678C223.358 127.068 222.808 129.468 222.198 131.838C220.858 137.008 218.688 141.878 216.518 146.728C216.438 146.918 216.348 147.108 216.248 147.278C213.748 151.518 211.328 155.818 207.958 159.448C204.808 162.848 201.298 165.788 197.238 168.098C192.938 170.558 190.558 171.438 186.728 173.048C185.408 173.608 184.138 174.238 182.658 174.318C182.068 174.348 181.498 174.688 180.928 174.918C179.768 175.378 178.558 175.518 177.328 175.538C177.238 175.538 177.078 175.478 177.058 175.408C177.008 175.238 176.938 174.948 177.018 174.888C179.078 173.278 180.398 171.048 181.968 169.038C184.758 165.498 187.438 161.868 190.158 158.278C190.348 158.038 190.538 157.798 190.708 157.538C192.738 154.328 195.138 151.388 197.478 148.408C197.558 148.338 197.538 148.128 197.598 147.808Z" fill="url(#paint8_linear_2009_48)"/>
<path d="M101.198 133.258C101.638 133.298 101.908 133.578 102.208 133.878C104.288 135.998 106.388 138.098 108.458 140.228C110.608 142.428 112.738 144.638 114.868 146.858C116.858 148.928 118.828 151.008 120.798 153.098C121.008 153.318 121.168 153.578 121.328 153.838C121.368 153.908 121.358 154.068 121.308 154.128C121.188 154.268 121.048 154.398 120.888 154.498C120.818 154.548 120.688 154.518 120.588 154.498C118.578 154.098 116.568 153.718 114.498 153.768C114.198 153.778 113.888 153.708 113.588 153.628C111.718 153.108 109.828 152.638 107.978 152.038C105.848 151.348 103.718 150.618 101.648 149.748C100.988 149.478 100.358 149.138 99.718 148.818C97.168 147.518 94.578 146.288 92.228 144.638C91.218 143.938 90.278 143.158 89.338 142.378C86.738 140.208 84.378 137.808 82.058 135.358C81.068 134.318 80.168 133.198 79.388 131.998C77.148 128.568 74.918 125.128 73.188 121.398C71.938 118.708 70.538 116.078 69.558 113.268C69.128 112.018 68.788 110.738 68.448 109.458C68.418 109.328 68.578 109.088 68.708 108.988C68.858 108.878 69.088 108.828 69.288 108.818C70.308 108.758 71.338 108.648 72.358 108.668C75.018 108.718 77.688 108.748 80.348 108.948C82.278 109.088 84.198 109.468 86.118 109.788C88.538 110.188 90.938 110.758 93.248 111.588C95.838 112.528 98.438 113.488 100.838 114.878C103.058 116.158 105.238 117.508 107.398 118.868C111.088 121.188 114.078 124.278 116.748 127.688C120.318 132.268 122.858 137.358 124.438 142.958C124.908 144.628 125.368 146.298 125.788 147.988C126.138 149.398 126.148 150.808 126.278 152.228C126.288 152.298 126.188 152.438 126.128 152.448C125.948 152.468 125.678 152.518 125.578 152.418C121.788 148.818 117.728 145.528 113.758 142.138C111.728 140.408 109.758 138.628 107.628 137.018C106.078 135.838 104.538 134.648 102.978 133.478C102.458 133.088 101.858 132.968 101.248 133.318L101.278 133.118L101.198 133.258Z" fill="url(#paint9_linear_2009_48)"/>
<path d="M70.1282 86.0882C70.1682 86.2782 70.1482 86.5182 70.2582 86.6582C70.8382 87.3782 71.4182 88.0982 72.0482 88.7682C74.7882 91.6782 77.5482 94.5582 80.2782 97.4782C81.2582 98.5182 82.1682 99.6282 83.0882 100.718C83.1982 100.848 83.2082 101.078 83.2382 101.268C83.2782 101.488 82.9482 101.628 82.4982 101.588C81.8882 101.538 81.2782 101.458 80.6582 101.438C77.3482 101.298 74.1782 100.488 71.0482 99.4882C67.6282 98.3982 64.4082 96.8282 61.3182 95.0182C58.6582 93.4582 56.2082 91.5982 53.8882 89.5782C52.6582 88.4982 51.4982 87.3282 50.3482 86.1582C48.1782 83.9582 46.4382 81.4182 44.7182 78.8782C42.3582 75.3982 40.2282 71.7682 38.7582 67.8082C37.5182 64.4482 36.1882 61.1182 35.2382 57.6682C34.9382 56.5882 34.7282 55.4782 34.4982 54.3782C34.4582 54.1882 34.5382 53.9782 34.5782 53.6782C34.9482 53.6182 35.3482 53.4882 35.7382 53.5082C38.5082 53.6382 41.2382 53.8882 43.9482 54.5782C47.0282 55.3682 50.1382 56.0382 53.0782 57.2382C58.7082 59.5182 64.0382 62.3282 68.5782 66.4582C71.6282 69.2282 74.2782 72.3382 76.7082 75.6482C79.7582 79.8082 81.9982 84.4182 84.1282 89.0682C85.1882 91.3882 85.8282 93.8882 86.6282 96.3182C87.0082 97.4882 87.3082 98.6782 87.6382 99.8682C87.6582 99.9382 87.5782 100.098 87.5282 100.108C87.3482 100.158 87.0882 100.238 86.9882 100.158C85.4182 98.8482 83.8482 97.5282 82.3082 96.1882C80.0782 94.2282 77.8782 92.2282 75.6382 90.2782C74.0882 88.9382 72.5082 87.6282 70.9082 86.3482C70.6982 86.1782 70.3482 86.2082 70.0582 86.1482C70.1382 85.7482 69.8382 85.5482 69.6382 85.2982C69.3982 85.1082 69.1582 84.9082 68.9182 84.7182C68.6182 84.5782 68.3282 84.4382 68.0282 84.2882L68.0182 84.1582C68.0182 84.1582 68.1082 84.2482 68.1182 84.2382C68.4082 84.3682 68.6982 84.4982 68.9782 84.6282C69.0282 85.0682 69.2382 85.2982 69.6982 85.2282C69.5982 85.8682 69.5982 85.8682 70.1282 86.0882Z" fill="url(#paint10_linear_2009_48)"/>
<path d="M56.3277 103.508C56.2477 103.568 56.1377 103.688 56.0777 103.668C54.7477 103.178 53.4777 102.548 52.1577 102.038C50.4077 101.358 48.6277 100.948 46.7777 100.878C44.7277 100.808 42.6777 100.848 40.6277 100.878C39.2777 100.898 38.0377 101.258 36.7977 101.878C34.5977 102.978 32.4177 104.078 30.5977 105.778C30.1977 106.148 29.6777 106.178 29.1577 105.978C24.7977 104.298 20.8677 101.928 17.7477 98.408C16.4677 96.958 15.3877 95.308 14.3577 93.658C11.9477 89.818 10.0877 85.728 8.78767 81.378C8.71767 81.138 8.93767 80.678 9.14767 80.598C9.33767 80.528 9.51767 80.408 9.71767 80.378C10.9277 80.168 12.1377 79.898 13.3577 79.808C15.9077 79.618 18.4777 79.428 21.0377 79.798C21.3377 79.838 21.6477 79.888 21.9577 79.878C24.2377 79.818 26.4277 80.428 28.6077 80.918C30.3777 81.318 32.1377 81.948 33.7977 82.758C36.1077 83.888 38.3577 85.098 40.4377 86.598C43.0277 88.458 45.3477 90.598 47.4277 93.038C50.0177 96.078 52.7277 99.008 55.3777 101.998C55.7077 102.378 55.9977 102.788 56.2977 103.198C56.3477 103.278 56.3177 103.408 56.3277 103.508Z" fill="url(#paint11_linear_2009_48)"/>
<path d="M274.788 157.818C272.038 157.548 269.408 158.008 266.788 158.438C264.448 158.828 262.108 158.898 259.748 158.778C259.508 158.768 259.348 158.638 259.368 158.388C259.378 158.208 259.418 157.968 259.538 157.868C260.408 157.158 261.348 156.528 262.178 155.778C264.778 153.438 267.678 151.528 270.688 149.768C272.128 148.928 273.668 148.368 275.208 147.868C278.118 146.918 281.068 146.108 284.178 145.978C289.578 145.758 294.788 146.498 299.888 148.288C302.688 149.268 305.458 150.328 308.158 151.548C308.268 151.598 308.278 151.888 308.298 152.078C308.308 152.168 308.238 152.278 308.168 152.348C306.818 153.888 305.488 155.448 304.118 156.968C301.678 159.658 298.648 161.578 295.568 163.408C293.728 164.028 292.038 165.058 290.108 165.438C289.708 165.518 289.308 165.618 288.938 165.778C287.598 166.368 286.188 166.588 284.748 166.608C282.908 166.638 281.058 166.648 279.218 166.608C278.398 166.588 277.568 166.518 276.778 166.328C274.588 165.818 272.408 165.238 270.228 164.668C269.438 164.458 268.668 164.198 267.878 163.988C266.888 163.728 265.908 163.548 264.968 163.058C264.078 162.598 263.008 162.518 262.028 162.208C261.758 162.128 261.538 161.868 261.328 161.668C261.148 161.498 261.248 160.978 261.458 160.868C262.278 160.408 263.178 160.188 264.088 160.118C265.428 160.018 266.708 159.688 267.998 159.358C269.288 159.028 270.588 158.698 271.938 158.728C272.998 158.748 273.868 158.178 274.788 157.818Z" fill="url(#paint12_linear_2009_48)"/>
<path d="M26.9783 160.928C27.6183 161.328 28.3183 161.208 28.9983 161.228C31.7583 161.308 34.5283 161.328 37.2883 161.438C39.7383 161.538 42.1983 161.708 44.6483 161.858C44.9283 161.878 45.3083 162.238 45.2483 162.428C45.1883 162.618 45.1083 162.798 45.0083 162.978C44.9583 163.068 44.8883 163.158 44.8083 163.208C41.7283 165.218 38.7183 167.358 35.2983 168.778C34.0783 169.288 32.8083 169.708 31.5583 170.138C31.1783 170.268 30.7583 170.338 30.3583 170.368C28.4183 170.508 26.4783 170.728 24.5383 170.718C22.4983 170.708 20.4383 170.618 18.4183 170.308C17.1283 170.108 15.8683 169.558 14.6683 169.008C9.44832 166.648 5.06832 163.178 1.37832 158.818C1.12832 158.528 1.25832 157.958 1.61832 157.768C3.52832 156.788 5.42832 155.788 7.35832 154.848C10.2183 153.458 13.1983 152.308 16.2683 151.598C19.3383 150.888 22.4383 150.128 25.6683 150.338C30.4083 150.648 34.9783 151.628 39.2783 153.708C41.7683 154.908 44.2183 156.168 46.5183 157.698C46.6583 157.788 46.7083 158.028 46.7683 158.208C46.8483 158.428 46.4983 158.748 46.1683 158.758C42.4683 158.818 38.8583 159.658 35.1783 159.878C32.9283 160.018 30.6883 160.278 28.4483 160.518C27.9483 160.588 27.4083 160.538 26.9783 160.928Z" fill="url(#paint13_linear_2009_48)"/>
<path d="M249.958 31.6182C250.098 35.2582 249.048 38.8982 247.688 42.4282C246.768 44.8082 245.508 47.0482 243.698 48.9182C243.488 49.1382 243.288 49.3782 243.108 49.6182C241.188 52.1282 238.578 53.7482 235.768 55.0082C231.848 56.7682 228.008 58.6482 224.418 61.0182C224.078 61.2482 223.728 61.4882 223.288 61.3782C223.118 61.3382 222.888 61.1982 222.848 61.0582C222.778 60.7782 222.768 60.4482 222.838 60.1682C223.648 57.1082 224.378 54.0282 224.998 50.9282C225.138 50.2282 225.318 49.5282 225.408 48.8282C225.658 46.8882 226.178 45.0282 226.738 43.1582C227.358 41.0582 228.408 39.1982 229.808 37.5582C231.878 35.1282 234.228 33.0282 237.058 31.4882C239.948 29.9282 242.968 28.7382 246.198 28.0682C250.488 27.1882 250.038 26.9382 249.958 31.6182Z" fill="url(#paint14_linear_2009_48)"/>
<path d="M126.748 33.468C126.748 35.828 126.698 38.168 126.308 40.508C126.128 41.608 126.128 42.748 126.118 43.878C126.098 46.228 126.128 48.588 126.118 50.938C126.118 51.098 125.938 51.268 125.828 51.418C125.688 51.608 125.218 51.538 124.998 51.318C124.848 51.178 124.668 51.058 124.548 50.898C123.418 49.438 122.258 48.008 121.198 46.508C119.838 44.578 118.328 42.778 116.668 41.108C115.368 39.798 114.198 38.368 113.098 36.888C110.318 33.158 108.838 29.008 108.878 24.328C108.878 24.128 108.878 23.918 108.878 23.718C108.748 20.198 109.438 16.808 110.568 13.488C111.988 9.30803 112.088 9.06803 112.528 9.18803C114.088 9.60803 114.958 10.978 116.178 11.868C117.668 12.958 118.988 14.258 120.258 15.598C123.208 18.698 125.288 22.278 126.358 26.448C126.588 27.348 126.758 28.238 126.758 29.168C126.748 30.598 126.748 32.028 126.748 33.468Z" fill="url(#paint15_linear_2009_48)"/>
<path d="M200.258 177.358C203.428 176.808 206.548 175.828 209.688 174.948C210.038 174.848 210.358 174.628 210.788 174.418C209.638 174.208 208.638 174.498 207.648 174.728C204.738 175.398 201.768 175.598 198.808 175.818C198.658 175.828 198.418 175.678 198.348 175.538C198.268 175.388 198.318 175.158 198.348 174.978C198.358 174.888 198.448 174.808 198.528 174.738C199.408 173.888 200.308 173.038 201.178 172.178C204.118 169.268 207.498 166.988 211.278 165.308C212.888 164.598 214.568 164.238 216.308 163.968C221.158 163.218 225.908 163.758 230.658 164.728C232.168 165.038 233.668 165.348 235.168 165.678C235.458 165.738 235.748 165.878 235.988 166.058C236.108 166.148 236.188 166.418 236.158 166.588C236.098 166.878 235.968 167.168 235.818 167.428C234.238 170.078 232.378 172.538 230.288 174.788C229.048 176.118 227.488 177.178 225.988 178.238C224.908 178.998 223.728 179.668 222.518 180.198C221.208 180.768 219.828 181.188 218.458 181.568C217.578 181.808 216.648 181.938 215.728 181.968C212.748 182.088 209.828 181.878 206.938 180.908C204.798 180.188 202.698 179.408 200.658 178.448C200.218 178.248 200.118 177.898 200.258 177.358Z" fill="url(#paint16_linear_2009_48)"/>
<path d="M80.5475 63.9282C80.6075 65.2282 80.4975 65.5082 80.2175 65.5382C79.8675 65.5782 79.6475 65.3882 79.4275 65.1882C78.8175 64.6482 78.2175 64.0882 77.6175 63.5282C75.1575 61.2082 72.5075 59.1382 69.7575 57.1782C67.8475 55.8182 66.0875 54.2282 64.6175 52.3682C64.2375 51.8882 63.8875 51.3782 63.6075 50.8382C61.6875 47.1982 60.1875 43.4082 59.7975 39.2582C59.7575 38.8482 59.6975 38.4482 59.6175 38.0382C59.0275 34.9882 59.3475 31.9182 59.5475 28.8582C59.5775 28.3382 60.1375 28.0282 60.6775 28.1882C60.7775 28.2182 60.8775 28.2282 60.9775 28.2582C63.6575 29.2782 66.2975 30.4182 68.6575 32.0582C71.9675 34.3582 74.8575 37.0882 76.7275 40.7282C77.8575 42.9282 78.4575 45.2982 78.8675 47.7282C79.2275 49.8582 79.3575 51.9982 79.3575 54.1482C79.3675 56.7182 79.9375 59.2182 80.2275 61.7582C80.3475 62.6882 80.5075 63.5982 80.5475 63.9282Z" fill="url(#paint17_linear_2009_48)"/>
<path d="M294.488 72.6681C294.608 72.9881 294.778 73.2081 294.728 73.3481C293.238 77.9581 291.178 82.2581 287.948 85.9381C286.518 87.5681 284.888 88.8881 282.988 89.9681C279.458 91.9881 275.668 93.0581 271.668 93.4681C270.648 93.5681 269.648 93.6981 268.658 93.9781C266.588 94.5481 264.458 94.8781 262.298 94.8181C262.138 94.8181 261.908 94.6681 261.828 94.5181C261.748 94.3681 261.768 94.1281 261.818 93.9581C261.878 93.7781 262.028 93.6181 262.148 93.4581C263.568 91.5781 264.788 89.5781 265.868 87.4881C267.378 84.5781 269.058 81.7781 271.298 79.3481C273.428 77.0481 275.958 75.4281 278.858 74.2781C283.958 72.2481 289.198 72.0581 294.488 72.6681Z" fill="url(#paint18_linear_2009_48)"/>
<path d="M181.588 126.468C180.368 128.598 179.158 130.728 177.928 132.848C177.848 132.988 177.638 133.058 177.478 133.168C177.308 132.928 176.998 132.678 177.008 132.438C177.158 129.358 176.678 126.308 176.718 123.238C176.788 117.438 178.908 112.448 182.938 108.328C184.798 106.418 187.048 104.958 189.288 103.518C191.018 102.408 192.768 101.368 194.738 100.738C195.288 100.568 195.718 100.828 195.838 101.448C195.858 101.548 195.888 101.648 195.898 101.748C196.398 104.998 196.638 108.258 196.218 111.538C196.128 112.248 196.078 112.968 195.978 113.678C195.198 119.048 192.908 123.588 188.618 127.048C186.868 128.458 185.148 129.928 183.238 131.128C182.638 131.508 182.028 131.878 181.398 132.228C180.958 132.468 180.498 132.668 179.948 132.928C179.858 132.528 179.678 132.198 179.758 131.968C180.198 130.828 180.658 129.688 181.198 128.588C181.538 127.898 181.498 127.208 181.438 126.498C181.498 126.528 181.558 126.558 181.618 126.578C181.568 126.588 181.518 126.608 181.468 126.618C181.528 126.578 181.558 126.528 181.588 126.468Z" fill="url(#paint19_linear_2009_48)"/>
<path d="M111.738 161.558C114.298 161.618 116.858 161.678 119.428 161.748C120.038 161.768 120.658 161.788 121.268 161.858C125.548 162.308 129.838 162.698 134.108 163.248C136.648 163.578 139.168 164.018 141.708 164.368C143.428 164.608 145.128 165.028 146.808 165.488C151.148 166.678 155.488 167.918 159.578 169.848C161.068 170.548 162.458 171.398 163.688 172.518C164.918 173.648 165.888 174.948 166.438 176.538C166.818 177.628 166.958 178.728 166.478 179.828C166.408 179.978 166.168 180.068 165.998 180.148C165.958 180.168 165.838 180.058 165.768 179.988C165.698 179.918 165.648 179.838 165.598 179.748C165.558 179.658 165.528 179.558 165.508 179.458C165.088 177.608 163.808 176.448 162.258 175.558C160.208 174.378 158.028 173.498 155.748 172.868C155.058 172.678 154.348 172.518 153.678 172.278C152.708 171.928 151.718 171.708 150.688 171.628C146.928 171.318 143.148 170.268 139.378 169.818C132.508 168.998 125.588 168.818 118.678 168.468C117.658 168.418 116.628 168.408 115.608 168.398C112.938 168.378 110.278 168.348 107.608 168.348C106.858 168.348 106.148 168.178 105.658 167.608C104.258 165.978 102.898 164.318 101.528 162.658C101.288 162.368 101.558 161.678 101.898 161.668C103.228 161.608 104.558 161.538 105.888 161.518C107.838 161.498 109.788 161.508 111.728 161.508C111.728 161.538 111.738 161.548 111.738 161.558Z" fill="url(#paint20_linear_2009_48)"/>
<path d="M22.178 143.048C20.458 142.938 18.538 142.858 16.608 142.488C14.048 141.998 11.738 141.018 9.50796 139.748C8.87796 139.388 8.30796 138.978 7.76796 138.498C5.03796 136.088 3.06796 133.098 1.36796 129.918C0.927962 129.108 0.527961 128.278 0.127961 127.448C-0.192039 126.798 0.0979608 126.378 0.887961 126.148C3.27796 125.468 5.74796 125.278 8.18796 125.218C10.628 125.158 13.118 125.288 15.368 126.498C17.228 126.898 18.738 127.938 20.188 129.098C21.238 129.938 22.168 130.868 22.918 131.988C23.598 133.008 24.328 133.998 25.088 134.968C27.058 137.478 29.288 139.718 31.978 141.478C32.088 141.548 32.088 141.828 32.098 142.008C32.098 142.058 31.968 142.158 31.878 142.168C31.478 142.238 31.078 142.298 30.668 142.328C29.748 142.398 28.808 142.348 27.908 142.528C26.078 142.908 24.228 142.828 22.178 143.048Z" fill="url(#paint21_linear_2009_48)"/>
<path d="M173.538 26.4681C173.558 23.6681 174.118 21.0181 175.458 18.5281C177.668 14.3981 180.618 10.9381 184.528 8.32808C184.768 8.16808 185.178 8.24808 185.348 8.47808C185.408 8.55808 185.508 8.61808 185.548 8.70808C186.908 11.3481 188.208 13.9881 188.428 17.0281C188.478 17.7281 188.808 18.4081 188.888 19.1181C189.178 21.6981 188.798 24.1981 187.868 26.6181C186.788 29.4181 185.188 31.9181 183.148 34.0881C180.908 36.4781 178.758 38.9381 176.828 41.5781C176.718 41.7181 176.508 41.7981 176.328 41.8781C176.168 41.9581 175.858 41.6081 175.788 41.2581C175.728 40.9581 175.638 40.6581 175.598 40.3581C175.558 40.0581 175.528 39.7481 175.538 39.4381C175.628 37.1581 175.048 34.9881 174.558 32.7981C174.068 30.7081 173.488 28.6381 173.538 26.4681Z" fill="url(#paint22_linear_2009_48)"/>
<path d="M53.2979 120.728L115.408 191.988L52.5479 121.388L53.2979 120.728Z" fill="#F9F9F3"/>
<path d="M38.2582 129.438L72.9582 187.078L37.4082 129.958L38.2582 129.438Z" fill="#F9F9F3"/>
<path d="M54.8683 173.948L51.7083 169.308C51.7083 169.308 16.0383 179.518 44.9283 194.958C44.9283 194.958 78.5884 209.268 126.268 206.988C126.268 206.988 154.538 206.608 190.078 191.918C190.078 191.918 196.448 189.398 199.098 198.208C199.098 198.208 208.658 178.758 184.068 182.188C171.738 183.908 171.188 192.578 122.458 195.618C103.948 196.768 70.0583 194.588 52.0483 186.768C49.0083 185.438 39.4283 180.148 54.8683 173.948Z" fill="#BBD238"/>
<defs>
<linearGradient id="paint0_linear_2009_48" x1="31.7027" y1="225.27" x2="271.545" y2="225.27" gradientUnits="userSpaceOnUse">
<stop stop-color="#009149"/>
<stop offset="0.1213" stop-color="#009448"/>
<stop offset="0.3091" stop-color="#299B47"/>
<stop offset="0.5396" stop-color="#5FA845"/>
<stop offset="0.8017" stop-color="#91BC40"/>
<stop offset="1" stop-color="#BBD238"/>
</linearGradient>
<linearGradient id="paint1_linear_2009_48" x1="29.2753" y1="102.892" x2="95.0952" y2="190.989" gradientUnits="userSpaceOnUse">
<stop stop-color="white"/>
<stop offset="0.2197" stop-color="#FEFEFC"/>
<stop offset="0.3126" stop-color="#FBFCF5"/>
<stop offset="0.3816" stop-color="#F6F9EB"/>
<stop offset="0.4388" stop-color="#F1F5DD"/>
<stop offset="0.4887" stop-color="#EBF1CC"/>
<stop offset="0.5335" stop-color="#E3EBB6"/>
<stop offset="0.5745" stop-color="#DAE59C"/>
<stop offset="0.6124" stop-color="#D0DF7F"/>
<stop offset="0.6467" stop-color="#C5D85A"/>
<stop offset="0.6732" stop-color="#BBD238"/>
<stop offset="0.7535" stop-color="#99C03F"/>
<stop offset="0.9302" stop-color="#359D47"/>
<stop offset="1" stop-color="#009149"/>
</linearGradient>
<linearGradient id="paint2_linear_2009_48" x1="226.041" y1="124.818" x2="308.261" y2="124.818" gradientUnits="userSpaceOnUse">
<stop stop-color="#009149"/>
<stop offset="1" stop-color="#BBD238"/>
</linearGradient>
<linearGradient id="paint3_linear_2009_48" x1="87.3357" y1="75.5867" x2="131.861" y2="75.5867" gradientUnits="userSpaceOnUse">
<stop stop-color="#009149"/>
<stop offset="1" stop-color="#BBD238"/>
</linearGradient>
<linearGradient id="paint4_linear_2009_48" x1="203.735" y1="84.5329" x2="270.183" y2="84.5329" gradientUnits="userSpaceOnUse">
<stop stop-color="#009149"/>
<stop offset="1" stop-color="#BBD238"/>
</linearGradient>
<linearGradient id="paint5_linear_2009_48" x1="172.977" y1="56.5144" x2="217.835" y2="56.5144" gradientUnits="userSpaceOnUse">
<stop stop-color="#009149"/>
<stop offset="1" stop-color="#BBD238"/>
</linearGradient>
<linearGradient id="paint6_linear_2009_48" x1="134.411" y1="41.1119" x2="168.346" y2="41.1119" gradientUnits="userSpaceOnUse">
<stop stop-color="#009149"/>
<stop offset="1" stop-color="#BBD238"/>
</linearGradient>
<linearGradient id="paint7_linear_2009_48" x1="138.73" y1="122.322" x2="170.328" y2="122.322" gradientUnits="userSpaceOnUse">
<stop stop-color="#009149"/>
<stop offset="1" stop-color="#BBD238"/>
</linearGradient>
<linearGradient id="paint8_linear_2009_48" x1="172.472" y1="149.612" x2="223.96" y2="149.612" gradientUnits="userSpaceOnUse">
<stop stop-color="#009149"/>
<stop offset="1" stop-color="#BBD238"/>
</linearGradient>
<linearGradient id="paint9_linear_2009_48" x1="68.4301" y1="131.582" x2="126.262" y2="131.582" gradientUnits="userSpaceOnUse">
<stop stop-color="#009149"/>
<stop offset="1" stop-color="#BBD238"/>
</linearGradient>
<linearGradient id="paint10_linear_2009_48" x1="34.492" y1="77.5615" x2="87.6542" y2="77.5615" gradientUnits="userSpaceOnUse">
<stop stop-color="#009149"/>
<stop offset="1" stop-color="#BBD238"/>
</linearGradient>
<linearGradient id="paint11_linear_2009_48" x1="8.76957" y1="92.8525" x2="56.3294" y2="92.8525" gradientUnits="userSpaceOnUse">
<stop stop-color="#009149"/>
<stop offset="1" stop-color="#BBD238"/>
</linearGradient>
<linearGradient id="paint12_linear_2009_48" x1="259.36" y1="156.287" x2="308.301" y2="156.287" gradientUnits="userSpaceOnUse">
<stop stop-color="#009149"/>
<stop offset="1" stop-color="#BBD238"/>
</linearGradient>
<linearGradient id="paint13_linear_2009_48" x1="1.24412" y1="160.527" x2="46.7797" y2="160.527" gradientUnits="userSpaceOnUse">
<stop stop-color="#009149"/>
<stop offset="1" stop-color="#BBD238"/>
</linearGradient>
<linearGradient id="paint14_linear_2009_48" x1="222.801" y1="44.4902" x2="250.01" y2="44.4902" gradientUnits="userSpaceOnUse">
<stop stop-color="#009149"/>
<stop offset="1" stop-color="#BBD238"/>
</linearGradient>
<linearGradient id="paint15_linear_2009_48" x1="108.859" y1="30.3443" x2="126.751" y2="30.3443" gradientUnits="userSpaceOnUse">
<stop stop-color="#009149"/>
<stop offset="1" stop-color="#BBD238"/>
</linearGradient>
<linearGradient id="paint16_linear_2009_48" x1="198.309" y1="172.814" x2="236.157" y2="172.814" gradientUnits="userSpaceOnUse">
<stop stop-color="#009149"/>
<stop offset="1" stop-color="#BBD238"/>
</linearGradient>
<linearGradient id="paint17_linear_2009_48" x1="59.2854" y1="46.8563" x2="80.5691" y2="46.8563" gradientUnits="userSpaceOnUse">
<stop stop-color="#009149"/>
<stop offset="1" stop-color="#BBD238"/>
</linearGradient>
<linearGradient id="paint18_linear_2009_48" x1="261.764" y1="83.5962" x2="294.736" y2="83.5962" gradientUnits="userSpaceOnUse">
<stop stop-color="#009149"/>
<stop offset="1" stop-color="#BBD238"/>
</linearGradient>
<linearGradient id="paint19_linear_2009_48" x1="176.722" y1="116.924" x2="196.44" y2="116.924" gradientUnits="userSpaceOnUse">
<stop stop-color="#009149"/>
<stop offset="1" stop-color="#BBD238"/>
</linearGradient>
<linearGradient id="paint20_linear_2009_48" x1="101.434" y1="170.834" x2="166.77" y2="170.834" gradientUnits="userSpaceOnUse">
<stop stop-color="#009149"/>
<stop offset="1" stop-color="#BBD238"/>
</linearGradient>
<linearGradient id="paint21_linear_2009_48" x1="-0.0124394" y1="134.135" x2="32.0842" y2="134.135" gradientUnits="userSpaceOnUse">
<stop stop-color="#009149"/>
<stop offset="1" stop-color="#BBD238"/>
</linearGradient>
<linearGradient id="paint22_linear_2009_48" x1="173.533" y1="25.0548" x2="188.97" y2="25.0548" gradientUnits="userSpaceOnUse">
<stop stop-color="#009149"/>
<stop offset="1" stop-color="#BBD238"/>
</linearGradient>
</defs>
</svg>
